<mxfile host="app.diagrams.net" modified="2024-03-03T09:00:32.522Z" agent="Mozilla/5.0 (Windows NT 10.0; Win64; x64) AppleWebKit/537.36 (KHTML, like Gecko) Chrome/122.0.0.0 Safari/537.36 Edg/122.0.0.0" etag="nigizYp4tY6EPCkpsbPg" version="23.1.5" type="device">
  <diagram name="Страница — 1" id="zT2ffbe0EcUndhZHa9LL">
    <mxGraphModel dx="2831" dy="1138" grid="1" gridSize="10" guides="1" tooltips="1" connect="1" arrows="1" fold="1" page="1" pageScale="1" pageWidth="827" pageHeight="1169" math="0" shadow="0">
      <root>
        <mxCell id="0" />
        <mxCell id="1" parent="0" />
        <mxCell id="JzgTgVcZ3ApAsJcOfGLZ-2" value="clients" style="shape=table;startSize=30;container=1;collapsible=1;childLayout=tableLayout;fixedRows=1;rowLines=0;fontStyle=1;align=center;resizeLast=1;html=1;" parent="1" vertex="1">
          <mxGeometry x="-230" y="100" width="180" height="250" as="geometry" />
        </mxCell>
        <mxCell id="JzgTgVcZ3ApAsJcOfGLZ-3" value="" style="shape=tableRow;horizontal=0;startSize=0;swimlaneHead=0;swimlaneBody=0;fillColor=none;collapsible=0;dropTarget=0;points=[[0,0.5],[1,0.5]];portConstraint=eastwest;top=0;left=0;right=0;bottom=1;" parent="JzgTgVcZ3ApAsJcOfGLZ-2" vertex="1">
          <mxGeometry y="30" width="180" height="30" as="geometry" />
        </mxCell>
        <mxCell id="JzgTgVcZ3ApAsJcOfGLZ-4" value="PK" style="shape=partialRectangle;connectable=0;fillColor=none;top=0;left=0;bottom=0;right=0;fontStyle=1;overflow=hidden;whiteSpace=wrap;html=1;" parent="JzgTgVcZ3ApAsJcOfGLZ-3" vertex="1">
          <mxGeometry width="30" height="30" as="geometry">
            <mxRectangle width="30" height="30" as="alternateBounds" />
          </mxGeometry>
        </mxCell>
        <mxCell id="JzgTgVcZ3ApAsJcOfGLZ-5" value="id" style="shape=partialRectangle;connectable=0;fillColor=none;top=0;left=0;bottom=0;right=0;align=left;spacingLeft=6;fontStyle=5;overflow=hidden;whiteSpace=wrap;html=1;" parent="JzgTgVcZ3ApAsJcOfGLZ-3" vertex="1">
          <mxGeometry x="30" width="150" height="30" as="geometry">
            <mxRectangle width="150" height="30" as="alternateBounds" />
          </mxGeometry>
        </mxCell>
        <mxCell id="JzgTgVcZ3ApAsJcOfGLZ-6" value="" style="shape=tableRow;horizontal=0;startSize=0;swimlaneHead=0;swimlaneBody=0;fillColor=none;collapsible=0;dropTarget=0;points=[[0,0.5],[1,0.5]];portConstraint=eastwest;top=0;left=0;right=0;bottom=0;" parent="JzgTgVcZ3ApAsJcOfGLZ-2" vertex="1">
          <mxGeometry y="60" width="180" height="30" as="geometry" />
        </mxCell>
        <mxCell id="JzgTgVcZ3ApAsJcOfGLZ-7" value="" style="shape=partialRectangle;connectable=0;fillColor=none;top=0;left=0;bottom=0;right=0;editable=1;overflow=hidden;whiteSpace=wrap;html=1;" parent="JzgTgVcZ3ApAsJcOfGLZ-6" vertex="1">
          <mxGeometry width="30" height="30" as="geometry">
            <mxRectangle width="30" height="30" as="alternateBounds" />
          </mxGeometry>
        </mxCell>
        <mxCell id="JzgTgVcZ3ApAsJcOfGLZ-8" value="first_name" style="shape=partialRectangle;connectable=0;fillColor=none;top=0;left=0;bottom=0;right=0;align=left;spacingLeft=6;overflow=hidden;whiteSpace=wrap;html=1;" parent="JzgTgVcZ3ApAsJcOfGLZ-6" vertex="1">
          <mxGeometry x="30" width="150" height="30" as="geometry">
            <mxRectangle width="150" height="30" as="alternateBounds" />
          </mxGeometry>
        </mxCell>
        <mxCell id="JzgTgVcZ3ApAsJcOfGLZ-9" value="" style="shape=tableRow;horizontal=0;startSize=0;swimlaneHead=0;swimlaneBody=0;fillColor=none;collapsible=0;dropTarget=0;points=[[0,0.5],[1,0.5]];portConstraint=eastwest;top=0;left=0;right=0;bottom=0;" parent="JzgTgVcZ3ApAsJcOfGLZ-2" vertex="1">
          <mxGeometry y="90" width="180" height="30" as="geometry" />
        </mxCell>
        <mxCell id="JzgTgVcZ3ApAsJcOfGLZ-10" value="" style="shape=partialRectangle;connectable=0;fillColor=none;top=0;left=0;bottom=0;right=0;editable=1;overflow=hidden;whiteSpace=wrap;html=1;" parent="JzgTgVcZ3ApAsJcOfGLZ-9" vertex="1">
          <mxGeometry width="30" height="30" as="geometry">
            <mxRectangle width="30" height="30" as="alternateBounds" />
          </mxGeometry>
        </mxCell>
        <mxCell id="JzgTgVcZ3ApAsJcOfGLZ-11" value="last_name" style="shape=partialRectangle;connectable=0;fillColor=none;top=0;left=0;bottom=0;right=0;align=left;spacingLeft=6;overflow=hidden;whiteSpace=wrap;html=1;" parent="JzgTgVcZ3ApAsJcOfGLZ-9" vertex="1">
          <mxGeometry x="30" width="150" height="30" as="geometry">
            <mxRectangle width="150" height="30" as="alternateBounds" />
          </mxGeometry>
        </mxCell>
        <mxCell id="JzgTgVcZ3ApAsJcOfGLZ-12" value="" style="shape=tableRow;horizontal=0;startSize=0;swimlaneHead=0;swimlaneBody=0;fillColor=none;collapsible=0;dropTarget=0;points=[[0,0.5],[1,0.5]];portConstraint=eastwest;top=0;left=0;right=0;bottom=0;" parent="JzgTgVcZ3ApAsJcOfGLZ-2" vertex="1">
          <mxGeometry y="120" width="180" height="30" as="geometry" />
        </mxCell>
        <mxCell id="JzgTgVcZ3ApAsJcOfGLZ-13" value="" style="shape=partialRectangle;connectable=0;fillColor=none;top=0;left=0;bottom=0;right=0;editable=1;overflow=hidden;whiteSpace=wrap;html=1;" parent="JzgTgVcZ3ApAsJcOfGLZ-12" vertex="1">
          <mxGeometry width="30" height="30" as="geometry">
            <mxRectangle width="30" height="30" as="alternateBounds" />
          </mxGeometry>
        </mxCell>
        <mxCell id="JzgTgVcZ3ApAsJcOfGLZ-14" value="patronymic" style="shape=partialRectangle;connectable=0;fillColor=none;top=0;left=0;bottom=0;right=0;align=left;spacingLeft=6;overflow=hidden;whiteSpace=wrap;html=1;" parent="JzgTgVcZ3ApAsJcOfGLZ-12" vertex="1">
          <mxGeometry x="30" width="150" height="30" as="geometry">
            <mxRectangle width="150" height="30" as="alternateBounds" />
          </mxGeometry>
        </mxCell>
        <mxCell id="JzgTgVcZ3ApAsJcOfGLZ-15" value="subcategories" style="shape=table;startSize=30;container=1;collapsible=1;childLayout=tableLayout;fixedRows=1;rowLines=0;fontStyle=1;align=center;resizeLast=1;html=1;" parent="1" vertex="1">
          <mxGeometry x="-550" y="400" width="180" height="150" as="geometry" />
        </mxCell>
        <mxCell id="JzgTgVcZ3ApAsJcOfGLZ-16" value="" style="shape=tableRow;horizontal=0;startSize=0;swimlaneHead=0;swimlaneBody=0;fillColor=none;collapsible=0;dropTarget=0;points=[[0,0.5],[1,0.5]];portConstraint=eastwest;top=0;left=0;right=0;bottom=1;" parent="JzgTgVcZ3ApAsJcOfGLZ-15" vertex="1">
          <mxGeometry y="30" width="180" height="30" as="geometry" />
        </mxCell>
        <mxCell id="JzgTgVcZ3ApAsJcOfGLZ-17" value="PK" style="shape=partialRectangle;connectable=0;fillColor=none;top=0;left=0;bottom=0;right=0;fontStyle=1;overflow=hidden;whiteSpace=wrap;html=1;" parent="JzgTgVcZ3ApAsJcOfGLZ-16" vertex="1">
          <mxGeometry width="30" height="30" as="geometry">
            <mxRectangle width="30" height="30" as="alternateBounds" />
          </mxGeometry>
        </mxCell>
        <mxCell id="JzgTgVcZ3ApAsJcOfGLZ-18" value="id" style="shape=partialRectangle;connectable=0;fillColor=none;top=0;left=0;bottom=0;right=0;align=left;spacingLeft=6;fontStyle=5;overflow=hidden;whiteSpace=wrap;html=1;" parent="JzgTgVcZ3ApAsJcOfGLZ-16" vertex="1">
          <mxGeometry x="30" width="150" height="30" as="geometry">
            <mxRectangle width="150" height="30" as="alternateBounds" />
          </mxGeometry>
        </mxCell>
        <mxCell id="JzgTgVcZ3ApAsJcOfGLZ-19" value="" style="shape=tableRow;horizontal=0;startSize=0;swimlaneHead=0;swimlaneBody=0;fillColor=none;collapsible=0;dropTarget=0;points=[[0,0.5],[1,0.5]];portConstraint=eastwest;top=0;left=0;right=0;bottom=0;" parent="JzgTgVcZ3ApAsJcOfGLZ-15" vertex="1">
          <mxGeometry y="60" width="180" height="30" as="geometry" />
        </mxCell>
        <mxCell id="JzgTgVcZ3ApAsJcOfGLZ-20" value="" style="shape=partialRectangle;connectable=0;fillColor=none;top=0;left=0;bottom=0;right=0;editable=1;overflow=hidden;whiteSpace=wrap;html=1;" parent="JzgTgVcZ3ApAsJcOfGLZ-19" vertex="1">
          <mxGeometry width="30" height="30" as="geometry">
            <mxRectangle width="30" height="30" as="alternateBounds" />
          </mxGeometry>
        </mxCell>
        <mxCell id="JzgTgVcZ3ApAsJcOfGLZ-21" value="name" style="shape=partialRectangle;connectable=0;fillColor=none;top=0;left=0;bottom=0;right=0;align=left;spacingLeft=6;overflow=hidden;whiteSpace=wrap;html=1;" parent="JzgTgVcZ3ApAsJcOfGLZ-19" vertex="1">
          <mxGeometry x="30" width="150" height="30" as="geometry">
            <mxRectangle width="150" height="30" as="alternateBounds" />
          </mxGeometry>
        </mxCell>
        <mxCell id="JzgTgVcZ3ApAsJcOfGLZ-22" value="" style="shape=tableRow;horizontal=0;startSize=0;swimlaneHead=0;swimlaneBody=0;fillColor=none;collapsible=0;dropTarget=0;points=[[0,0.5],[1,0.5]];portConstraint=eastwest;top=0;left=0;right=0;bottom=0;" parent="JzgTgVcZ3ApAsJcOfGLZ-15" vertex="1">
          <mxGeometry y="90" width="180" height="30" as="geometry" />
        </mxCell>
        <mxCell id="JzgTgVcZ3ApAsJcOfGLZ-23" value="" style="shape=partialRectangle;connectable=0;fillColor=none;top=0;left=0;bottom=0;right=0;editable=1;overflow=hidden;whiteSpace=wrap;html=1;" parent="JzgTgVcZ3ApAsJcOfGLZ-22" vertex="1">
          <mxGeometry width="30" height="30" as="geometry">
            <mxRectangle width="30" height="30" as="alternateBounds" />
          </mxGeometry>
        </mxCell>
        <mxCell id="JzgTgVcZ3ApAsJcOfGLZ-24" value="id_categories" style="shape=partialRectangle;connectable=0;fillColor=none;top=0;left=0;bottom=0;right=0;align=left;spacingLeft=6;overflow=hidden;whiteSpace=wrap;html=1;" parent="JzgTgVcZ3ApAsJcOfGLZ-22" vertex="1">
          <mxGeometry x="30" width="150" height="30" as="geometry">
            <mxRectangle width="150" height="30" as="alternateBounds" />
          </mxGeometry>
        </mxCell>
        <mxCell id="JzgTgVcZ3ApAsJcOfGLZ-25" value="" style="shape=tableRow;horizontal=0;startSize=0;swimlaneHead=0;swimlaneBody=0;fillColor=none;collapsible=0;dropTarget=0;points=[[0,0.5],[1,0.5]];portConstraint=eastwest;top=0;left=0;right=0;bottom=0;" parent="JzgTgVcZ3ApAsJcOfGLZ-15" vertex="1">
          <mxGeometry y="120" width="180" height="30" as="geometry" />
        </mxCell>
        <mxCell id="JzgTgVcZ3ApAsJcOfGLZ-26" value="" style="shape=partialRectangle;connectable=0;fillColor=none;top=0;left=0;bottom=0;right=0;editable=1;overflow=hidden;whiteSpace=wrap;html=1;" parent="JzgTgVcZ3ApAsJcOfGLZ-25" vertex="1">
          <mxGeometry width="30" height="30" as="geometry">
            <mxRectangle width="30" height="30" as="alternateBounds" />
          </mxGeometry>
        </mxCell>
        <mxCell id="JzgTgVcZ3ApAsJcOfGLZ-27" value="" style="shape=partialRectangle;connectable=0;fillColor=none;top=0;left=0;bottom=0;right=0;align=left;spacingLeft=6;overflow=hidden;whiteSpace=wrap;html=1;" parent="JzgTgVcZ3ApAsJcOfGLZ-25" vertex="1">
          <mxGeometry x="30" width="150" height="30" as="geometry">
            <mxRectangle width="150" height="30" as="alternateBounds" />
          </mxGeometry>
        </mxCell>
        <mxCell id="JzgTgVcZ3ApAsJcOfGLZ-28" value="categories" style="shape=table;startSize=30;container=1;collapsible=1;childLayout=tableLayout;fixedRows=1;rowLines=0;fontStyle=1;align=center;resizeLast=1;html=1;" parent="1" vertex="1">
          <mxGeometry x="-550" y="225" width="180" height="140" as="geometry" />
        </mxCell>
        <mxCell id="JzgTgVcZ3ApAsJcOfGLZ-29" value="" style="shape=tableRow;horizontal=0;startSize=0;swimlaneHead=0;swimlaneBody=0;fillColor=none;collapsible=0;dropTarget=0;points=[[0,0.5],[1,0.5]];portConstraint=eastwest;top=0;left=0;right=0;bottom=1;" parent="JzgTgVcZ3ApAsJcOfGLZ-28" vertex="1">
          <mxGeometry y="30" width="180" height="20" as="geometry" />
        </mxCell>
        <mxCell id="JzgTgVcZ3ApAsJcOfGLZ-30" value="PK" style="shape=partialRectangle;connectable=0;fillColor=none;top=0;left=0;bottom=0;right=0;fontStyle=1;overflow=hidden;whiteSpace=wrap;html=1;" parent="JzgTgVcZ3ApAsJcOfGLZ-29" vertex="1">
          <mxGeometry width="30" height="20" as="geometry">
            <mxRectangle width="30" height="20" as="alternateBounds" />
          </mxGeometry>
        </mxCell>
        <mxCell id="JzgTgVcZ3ApAsJcOfGLZ-31" value="id" style="shape=partialRectangle;connectable=0;fillColor=none;top=0;left=0;bottom=0;right=0;align=left;spacingLeft=6;fontStyle=5;overflow=hidden;whiteSpace=wrap;html=1;" parent="JzgTgVcZ3ApAsJcOfGLZ-29" vertex="1">
          <mxGeometry x="30" width="150" height="20" as="geometry">
            <mxRectangle width="150" height="20" as="alternateBounds" />
          </mxGeometry>
        </mxCell>
        <mxCell id="JzgTgVcZ3ApAsJcOfGLZ-32" value="" style="shape=tableRow;horizontal=0;startSize=0;swimlaneHead=0;swimlaneBody=0;fillColor=none;collapsible=0;dropTarget=0;points=[[0,0.5],[1,0.5]];portConstraint=eastwest;top=0;left=0;right=0;bottom=0;" parent="JzgTgVcZ3ApAsJcOfGLZ-28" vertex="1">
          <mxGeometry y="50" width="180" height="30" as="geometry" />
        </mxCell>
        <mxCell id="JzgTgVcZ3ApAsJcOfGLZ-33" value="" style="shape=partialRectangle;connectable=0;fillColor=none;top=0;left=0;bottom=0;right=0;editable=1;overflow=hidden;whiteSpace=wrap;html=1;" parent="JzgTgVcZ3ApAsJcOfGLZ-32" vertex="1">
          <mxGeometry width="30" height="30" as="geometry">
            <mxRectangle width="30" height="30" as="alternateBounds" />
          </mxGeometry>
        </mxCell>
        <mxCell id="JzgTgVcZ3ApAsJcOfGLZ-34" value="name" style="shape=partialRectangle;connectable=0;fillColor=none;top=0;left=0;bottom=0;right=0;align=left;spacingLeft=6;overflow=hidden;whiteSpace=wrap;html=1;" parent="JzgTgVcZ3ApAsJcOfGLZ-32" vertex="1">
          <mxGeometry x="30" width="150" height="30" as="geometry">
            <mxRectangle width="150" height="30" as="alternateBounds" />
          </mxGeometry>
        </mxCell>
        <mxCell id="JzgTgVcZ3ApAsJcOfGLZ-35" value="" style="shape=tableRow;horizontal=0;startSize=0;swimlaneHead=0;swimlaneBody=0;fillColor=none;collapsible=0;dropTarget=0;points=[[0,0.5],[1,0.5]];portConstraint=eastwest;top=0;left=0;right=0;bottom=0;" parent="JzgTgVcZ3ApAsJcOfGLZ-28" vertex="1">
          <mxGeometry y="80" width="180" height="30" as="geometry" />
        </mxCell>
        <mxCell id="JzgTgVcZ3ApAsJcOfGLZ-36" value="" style="shape=partialRectangle;connectable=0;fillColor=none;top=0;left=0;bottom=0;right=0;editable=1;overflow=hidden;whiteSpace=wrap;html=1;" parent="JzgTgVcZ3ApAsJcOfGLZ-35" vertex="1">
          <mxGeometry width="30" height="30" as="geometry">
            <mxRectangle width="30" height="30" as="alternateBounds" />
          </mxGeometry>
        </mxCell>
        <mxCell id="JzgTgVcZ3ApAsJcOfGLZ-37" value="" style="shape=partialRectangle;connectable=0;fillColor=none;top=0;left=0;bottom=0;right=0;align=left;spacingLeft=6;overflow=hidden;whiteSpace=wrap;html=1;" parent="JzgTgVcZ3ApAsJcOfGLZ-35" vertex="1">
          <mxGeometry x="30" width="150" height="30" as="geometry">
            <mxRectangle width="150" height="30" as="alternateBounds" />
          </mxGeometry>
        </mxCell>
        <mxCell id="JzgTgVcZ3ApAsJcOfGLZ-38" value="" style="shape=tableRow;horizontal=0;startSize=0;swimlaneHead=0;swimlaneBody=0;fillColor=none;collapsible=0;dropTarget=0;points=[[0,0.5],[1,0.5]];portConstraint=eastwest;top=0;left=0;right=0;bottom=0;" parent="JzgTgVcZ3ApAsJcOfGLZ-28" vertex="1">
          <mxGeometry y="110" width="180" height="30" as="geometry" />
        </mxCell>
        <mxCell id="JzgTgVcZ3ApAsJcOfGLZ-39" value="" style="shape=partialRectangle;connectable=0;fillColor=none;top=0;left=0;bottom=0;right=0;editable=1;overflow=hidden;whiteSpace=wrap;html=1;" parent="JzgTgVcZ3ApAsJcOfGLZ-38" vertex="1">
          <mxGeometry width="30" height="30" as="geometry">
            <mxRectangle width="30" height="30" as="alternateBounds" />
          </mxGeometry>
        </mxCell>
        <mxCell id="JzgTgVcZ3ApAsJcOfGLZ-40" value="" style="shape=partialRectangle;connectable=0;fillColor=none;top=0;left=0;bottom=0;right=0;align=left;spacingLeft=6;overflow=hidden;whiteSpace=wrap;html=1;" parent="JzgTgVcZ3ApAsJcOfGLZ-38" vertex="1">
          <mxGeometry x="30" width="150" height="30" as="geometry">
            <mxRectangle width="150" height="30" as="alternateBounds" />
          </mxGeometry>
        </mxCell>
        <mxCell id="JzgTgVcZ3ApAsJcOfGLZ-41" value="products" style="shape=table;startSize=30;container=1;collapsible=1;childLayout=tableLayout;fixedRows=1;rowLines=0;fontStyle=1;align=center;resizeLast=1;html=1;" parent="1" vertex="1">
          <mxGeometry x="-230" y="395" width="180" height="300" as="geometry" />
        </mxCell>
        <mxCell id="JzgTgVcZ3ApAsJcOfGLZ-42" value="" style="shape=tableRow;horizontal=0;startSize=0;swimlaneHead=0;swimlaneBody=0;fillColor=none;collapsible=0;dropTarget=0;points=[[0,0.5],[1,0.5]];portConstraint=eastwest;top=0;left=0;right=0;bottom=1;" parent="JzgTgVcZ3ApAsJcOfGLZ-41" vertex="1">
          <mxGeometry y="30" width="180" height="30" as="geometry" />
        </mxCell>
        <mxCell id="JzgTgVcZ3ApAsJcOfGLZ-43" value="PK" style="shape=partialRectangle;connectable=0;fillColor=none;top=0;left=0;bottom=0;right=0;fontStyle=1;overflow=hidden;whiteSpace=wrap;html=1;" parent="JzgTgVcZ3ApAsJcOfGLZ-42" vertex="1">
          <mxGeometry width="30" height="30" as="geometry">
            <mxRectangle width="30" height="30" as="alternateBounds" />
          </mxGeometry>
        </mxCell>
        <mxCell id="JzgTgVcZ3ApAsJcOfGLZ-44" value="id" style="shape=partialRectangle;connectable=0;fillColor=none;top=0;left=0;bottom=0;right=0;align=left;spacingLeft=6;fontStyle=5;overflow=hidden;whiteSpace=wrap;html=1;" parent="JzgTgVcZ3ApAsJcOfGLZ-42" vertex="1">
          <mxGeometry x="30" width="150" height="30" as="geometry">
            <mxRectangle width="150" height="30" as="alternateBounds" />
          </mxGeometry>
        </mxCell>
        <mxCell id="JzgTgVcZ3ApAsJcOfGLZ-45" value="" style="shape=tableRow;horizontal=0;startSize=0;swimlaneHead=0;swimlaneBody=0;fillColor=none;collapsible=0;dropTarget=0;points=[[0,0.5],[1,0.5]];portConstraint=eastwest;top=0;left=0;right=0;bottom=0;" parent="JzgTgVcZ3ApAsJcOfGLZ-41" vertex="1">
          <mxGeometry y="60" width="180" height="30" as="geometry" />
        </mxCell>
        <mxCell id="JzgTgVcZ3ApAsJcOfGLZ-46" value="" style="shape=partialRectangle;connectable=0;fillColor=none;top=0;left=0;bottom=0;right=0;editable=1;overflow=hidden;whiteSpace=wrap;html=1;" parent="JzgTgVcZ3ApAsJcOfGLZ-45" vertex="1">
          <mxGeometry width="30" height="30" as="geometry">
            <mxRectangle width="30" height="30" as="alternateBounds" />
          </mxGeometry>
        </mxCell>
        <mxCell id="JzgTgVcZ3ApAsJcOfGLZ-47" value="name" style="shape=partialRectangle;connectable=0;fillColor=none;top=0;left=0;bottom=0;right=0;align=left;spacingLeft=6;overflow=hidden;whiteSpace=wrap;html=1;" parent="JzgTgVcZ3ApAsJcOfGLZ-45" vertex="1">
          <mxGeometry x="30" width="150" height="30" as="geometry">
            <mxRectangle width="150" height="30" as="alternateBounds" />
          </mxGeometry>
        </mxCell>
        <mxCell id="JzgTgVcZ3ApAsJcOfGLZ-48" value="" style="shape=tableRow;horizontal=0;startSize=0;swimlaneHead=0;swimlaneBody=0;fillColor=none;collapsible=0;dropTarget=0;points=[[0,0.5],[1,0.5]];portConstraint=eastwest;top=0;left=0;right=0;bottom=0;" parent="JzgTgVcZ3ApAsJcOfGLZ-41" vertex="1">
          <mxGeometry y="90" width="180" height="30" as="geometry" />
        </mxCell>
        <mxCell id="JzgTgVcZ3ApAsJcOfGLZ-49" value="" style="shape=partialRectangle;connectable=0;fillColor=none;top=0;left=0;bottom=0;right=0;editable=1;overflow=hidden;whiteSpace=wrap;html=1;" parent="JzgTgVcZ3ApAsJcOfGLZ-48" vertex="1">
          <mxGeometry width="30" height="30" as="geometry">
            <mxRectangle width="30" height="30" as="alternateBounds" />
          </mxGeometry>
        </mxCell>
        <mxCell id="JzgTgVcZ3ApAsJcOfGLZ-50" value="price" style="shape=partialRectangle;connectable=0;fillColor=none;top=0;left=0;bottom=0;right=0;align=left;spacingLeft=6;overflow=hidden;whiteSpace=wrap;html=1;" parent="JzgTgVcZ3ApAsJcOfGLZ-48" vertex="1">
          <mxGeometry x="30" width="150" height="30" as="geometry">
            <mxRectangle width="150" height="30" as="alternateBounds" />
          </mxGeometry>
        </mxCell>
        <mxCell id="JzgTgVcZ3ApAsJcOfGLZ-51" value="" style="shape=tableRow;horizontal=0;startSize=0;swimlaneHead=0;swimlaneBody=0;fillColor=none;collapsible=0;dropTarget=0;points=[[0,0.5],[1,0.5]];portConstraint=eastwest;top=0;left=0;right=0;bottom=0;" parent="JzgTgVcZ3ApAsJcOfGLZ-41" vertex="1">
          <mxGeometry y="120" width="180" height="30" as="geometry" />
        </mxCell>
        <mxCell id="JzgTgVcZ3ApAsJcOfGLZ-52" value="" style="shape=partialRectangle;connectable=0;fillColor=none;top=0;left=0;bottom=0;right=0;editable=1;overflow=hidden;whiteSpace=wrap;html=1;" parent="JzgTgVcZ3ApAsJcOfGLZ-51" vertex="1">
          <mxGeometry width="30" height="30" as="geometry">
            <mxRectangle width="30" height="30" as="alternateBounds" />
          </mxGeometry>
        </mxCell>
        <mxCell id="JzgTgVcZ3ApAsJcOfGLZ-53" value="description" style="shape=partialRectangle;connectable=0;fillColor=none;top=0;left=0;bottom=0;right=0;align=left;spacingLeft=6;overflow=hidden;whiteSpace=wrap;html=1;" parent="JzgTgVcZ3ApAsJcOfGLZ-51" vertex="1">
          <mxGeometry x="30" width="150" height="30" as="geometry">
            <mxRectangle width="150" height="30" as="alternateBounds" />
          </mxGeometry>
        </mxCell>
        <mxCell id="JzgTgVcZ3ApAsJcOfGLZ-55" value="orders" style="shape=table;startSize=30;container=1;collapsible=1;childLayout=tableLayout;fixedRows=1;rowLines=0;fontStyle=1;align=center;resizeLast=1;html=1;" parent="1" vertex="1">
          <mxGeometry x="55" y="450" width="180" height="240" as="geometry" />
        </mxCell>
        <mxCell id="JzgTgVcZ3ApAsJcOfGLZ-56" value="" style="shape=tableRow;horizontal=0;startSize=0;swimlaneHead=0;swimlaneBody=0;fillColor=none;collapsible=0;dropTarget=0;points=[[0,0.5],[1,0.5]];portConstraint=eastwest;top=0;left=0;right=0;bottom=1;" parent="JzgTgVcZ3ApAsJcOfGLZ-55" vertex="1">
          <mxGeometry y="30" width="180" height="30" as="geometry" />
        </mxCell>
        <mxCell id="JzgTgVcZ3ApAsJcOfGLZ-57" value="PK" style="shape=partialRectangle;connectable=0;fillColor=none;top=0;left=0;bottom=0;right=0;fontStyle=1;overflow=hidden;whiteSpace=wrap;html=1;" parent="JzgTgVcZ3ApAsJcOfGLZ-56" vertex="1">
          <mxGeometry width="30" height="30" as="geometry">
            <mxRectangle width="30" height="30" as="alternateBounds" />
          </mxGeometry>
        </mxCell>
        <mxCell id="JzgTgVcZ3ApAsJcOfGLZ-58" value="id" style="shape=partialRectangle;connectable=0;fillColor=none;top=0;left=0;bottom=0;right=0;align=left;spacingLeft=6;fontStyle=5;overflow=hidden;whiteSpace=wrap;html=1;" parent="JzgTgVcZ3ApAsJcOfGLZ-56" vertex="1">
          <mxGeometry x="30" width="150" height="30" as="geometry">
            <mxRectangle width="150" height="30" as="alternateBounds" />
          </mxGeometry>
        </mxCell>
        <mxCell id="JzgTgVcZ3ApAsJcOfGLZ-59" value="" style="shape=tableRow;horizontal=0;startSize=0;swimlaneHead=0;swimlaneBody=0;fillColor=none;collapsible=0;dropTarget=0;points=[[0,0.5],[1,0.5]];portConstraint=eastwest;top=0;left=0;right=0;bottom=0;" parent="JzgTgVcZ3ApAsJcOfGLZ-55" vertex="1">
          <mxGeometry y="60" width="180" height="30" as="geometry" />
        </mxCell>
        <mxCell id="JzgTgVcZ3ApAsJcOfGLZ-60" value="" style="shape=partialRectangle;connectable=0;fillColor=none;top=0;left=0;bottom=0;right=0;editable=1;overflow=hidden;whiteSpace=wrap;html=1;" parent="JzgTgVcZ3ApAsJcOfGLZ-59" vertex="1">
          <mxGeometry width="30" height="30" as="geometry">
            <mxRectangle width="30" height="30" as="alternateBounds" />
          </mxGeometry>
        </mxCell>
        <mxCell id="JzgTgVcZ3ApAsJcOfGLZ-61" value="id_client" style="shape=partialRectangle;connectable=0;fillColor=none;top=0;left=0;bottom=0;right=0;align=left;spacingLeft=6;overflow=hidden;whiteSpace=wrap;html=1;" parent="JzgTgVcZ3ApAsJcOfGLZ-59" vertex="1">
          <mxGeometry x="30" width="150" height="30" as="geometry">
            <mxRectangle width="150" height="30" as="alternateBounds" />
          </mxGeometry>
        </mxCell>
        <mxCell id="JzgTgVcZ3ApAsJcOfGLZ-62" value="" style="shape=tableRow;horizontal=0;startSize=0;swimlaneHead=0;swimlaneBody=0;fillColor=none;collapsible=0;dropTarget=0;points=[[0,0.5],[1,0.5]];portConstraint=eastwest;top=0;left=0;right=0;bottom=0;" parent="JzgTgVcZ3ApAsJcOfGLZ-55" vertex="1">
          <mxGeometry y="90" width="180" height="30" as="geometry" />
        </mxCell>
        <mxCell id="JzgTgVcZ3ApAsJcOfGLZ-63" value="" style="shape=partialRectangle;connectable=0;fillColor=none;top=0;left=0;bottom=0;right=0;editable=1;overflow=hidden;whiteSpace=wrap;html=1;" parent="JzgTgVcZ3ApAsJcOfGLZ-62" vertex="1">
          <mxGeometry width="30" height="30" as="geometry">
            <mxRectangle width="30" height="30" as="alternateBounds" />
          </mxGeometry>
        </mxCell>
        <mxCell id="JzgTgVcZ3ApAsJcOfGLZ-64" value="id_product" style="shape=partialRectangle;connectable=0;fillColor=none;top=0;left=0;bottom=0;right=0;align=left;spacingLeft=6;overflow=hidden;whiteSpace=wrap;html=1;" parent="JzgTgVcZ3ApAsJcOfGLZ-62" vertex="1">
          <mxGeometry x="30" width="150" height="30" as="geometry">
            <mxRectangle width="150" height="30" as="alternateBounds" />
          </mxGeometry>
        </mxCell>
        <mxCell id="JzgTgVcZ3ApAsJcOfGLZ-65" value="" style="shape=tableRow;horizontal=0;startSize=0;swimlaneHead=0;swimlaneBody=0;fillColor=none;collapsible=0;dropTarget=0;points=[[0,0.5],[1,0.5]];portConstraint=eastwest;top=0;left=0;right=0;bottom=0;" parent="JzgTgVcZ3ApAsJcOfGLZ-55" vertex="1">
          <mxGeometry y="120" width="180" height="30" as="geometry" />
        </mxCell>
        <mxCell id="JzgTgVcZ3ApAsJcOfGLZ-66" value="" style="shape=partialRectangle;connectable=0;fillColor=none;top=0;left=0;bottom=0;right=0;editable=1;overflow=hidden;whiteSpace=wrap;html=1;" parent="JzgTgVcZ3ApAsJcOfGLZ-65" vertex="1">
          <mxGeometry width="30" height="30" as="geometry">
            <mxRectangle width="30" height="30" as="alternateBounds" />
          </mxGeometry>
        </mxCell>
        <mxCell id="JzgTgVcZ3ApAsJcOfGLZ-67" value="final_price" style="shape=partialRectangle;connectable=0;fillColor=none;top=0;left=0;bottom=0;right=0;align=left;spacingLeft=6;overflow=hidden;whiteSpace=wrap;html=1;" parent="JzgTgVcZ3ApAsJcOfGLZ-65" vertex="1">
          <mxGeometry x="30" width="150" height="30" as="geometry">
            <mxRectangle width="150" height="30" as="alternateBounds" />
          </mxGeometry>
        </mxCell>
        <mxCell id="JzgTgVcZ3ApAsJcOfGLZ-69" value="" style="endArrow=none;html=1;rounded=0;fontSize=12;startSize=8;endSize=8;exitX=0.165;exitY=0.939;exitDx=0;exitDy=0;exitPerimeter=0;" parent="1" source="JzgTgVcZ3ApAsJcOfGLZ-51" edge="1">
          <mxGeometry width="50" height="50" relative="1" as="geometry">
            <mxPoint x="200" y="605" as="sourcePoint" />
            <mxPoint x="-200" y="695" as="targetPoint" />
          </mxGeometry>
        </mxCell>
        <mxCell id="JzgTgVcZ3ApAsJcOfGLZ-70" value="image" style="shape=partialRectangle;connectable=0;fillColor=none;top=0;left=0;bottom=0;right=0;align=left;spacingLeft=6;overflow=hidden;whiteSpace=wrap;html=1;" parent="1" vertex="1">
          <mxGeometry x="-200" y="545" width="150" height="30" as="geometry">
            <mxRectangle width="150" height="30" as="alternateBounds" />
          </mxGeometry>
        </mxCell>
        <mxCell id="JzgTgVcZ3ApAsJcOfGLZ-71" value="id_category" style="shape=partialRectangle;connectable=0;fillColor=none;top=0;left=0;bottom=0;right=0;align=left;spacingLeft=6;overflow=hidden;whiteSpace=wrap;html=1;" parent="1" vertex="1">
          <mxGeometry x="-200" y="605" width="150" height="30" as="geometry">
            <mxRectangle width="150" height="30" as="alternateBounds" />
          </mxGeometry>
        </mxCell>
        <mxCell id="JzgTgVcZ3ApAsJcOfGLZ-72" value="count" style="shape=partialRectangle;connectable=0;fillColor=none;top=0;left=0;bottom=0;right=0;align=left;spacingLeft=6;overflow=hidden;whiteSpace=wrap;html=1;" parent="1" vertex="1">
          <mxGeometry x="-200" y="575" width="150" height="30" as="geometry">
            <mxRectangle width="150" height="30" as="alternateBounds" />
          </mxGeometry>
        </mxCell>
        <mxCell id="JzgTgVcZ3ApAsJcOfGLZ-73" value="id_subcategory" style="shape=partialRectangle;connectable=0;fillColor=none;top=0;left=0;bottom=0;right=0;align=left;spacingLeft=6;overflow=hidden;whiteSpace=wrap;html=1;" parent="1" vertex="1">
          <mxGeometry x="-200" y="635" width="150" height="30" as="geometry">
            <mxRectangle width="150" height="30" as="alternateBounds" />
          </mxGeometry>
        </mxCell>
        <mxCell id="JzgTgVcZ3ApAsJcOfGLZ-74" value="" style="endArrow=none;html=1;rounded=0;fontSize=12;startSize=8;endSize=8;entryX=0.165;entryY=0.985;entryDx=0;entryDy=0;entryPerimeter=0;" parent="1" target="JzgTgVcZ3ApAsJcOfGLZ-12" edge="1">
          <mxGeometry width="50" height="50" relative="1" as="geometry">
            <mxPoint x="-200" y="350" as="sourcePoint" />
            <mxPoint x="-150" y="270" as="targetPoint" />
          </mxGeometry>
        </mxCell>
        <mxCell id="JzgTgVcZ3ApAsJcOfGLZ-75" value="email" style="shape=partialRectangle;connectable=0;fillColor=none;top=0;left=0;bottom=0;right=0;align=left;spacingLeft=6;overflow=hidden;whiteSpace=wrap;html=1;" parent="1" vertex="1">
          <mxGeometry x="-200" y="250" width="150" height="30" as="geometry">
            <mxRectangle width="150" height="30" as="alternateBounds" />
          </mxGeometry>
        </mxCell>
        <mxCell id="JzgTgVcZ3ApAsJcOfGLZ-76" value="" style="shape=partialRectangle;connectable=0;fillColor=none;top=0;left=0;bottom=0;right=0;align=left;spacingLeft=6;overflow=hidden;whiteSpace=wrap;html=1;" parent="1" vertex="1">
          <mxGeometry x="-200" y="280" width="150" height="30" as="geometry">
            <mxRectangle width="150" height="30" as="alternateBounds" />
          </mxGeometry>
        </mxCell>
        <mxCell id="JzgTgVcZ3ApAsJcOfGLZ-78" value="" style="endArrow=none;html=1;rounded=0;fontSize=12;startSize=8;endSize=8;entryX=0.165;entryY=0.985;entryDx=0;entryDy=0;entryPerimeter=0;" parent="1" edge="1">
          <mxGeometry width="50" height="50" relative="1" as="geometry">
            <mxPoint x="85" y="690" as="sourcePoint" />
            <mxPoint x="85" y="590" as="targetPoint" />
          </mxGeometry>
        </mxCell>
        <mxCell id="JzgTgVcZ3ApAsJcOfGLZ-79" value="address" style="shape=partialRectangle;connectable=0;fillColor=none;top=0;left=0;bottom=0;right=0;align=left;spacingLeft=6;overflow=hidden;whiteSpace=wrap;html=1;" parent="1" vertex="1">
          <mxGeometry x="85" y="600" width="150" height="30" as="geometry">
            <mxRectangle width="150" height="30" as="alternateBounds" />
          </mxGeometry>
        </mxCell>
        <mxCell id="JzgTgVcZ3ApAsJcOfGLZ-80" value="data" style="shape=partialRectangle;connectable=0;fillColor=none;top=0;left=0;bottom=0;right=0;align=left;spacingLeft=6;overflow=hidden;whiteSpace=wrap;html=1;" parent="1" vertex="1">
          <mxGeometry x="85" y="630" width="150" height="30" as="geometry">
            <mxRectangle width="150" height="30" as="alternateBounds" />
          </mxGeometry>
        </mxCell>
        <mxCell id="JzgTgVcZ3ApAsJcOfGLZ-81" value="https://classmech.ru/pages/databases/goods/" style="text;html=1;align=center;verticalAlign=middle;resizable=0;points=[];autosize=1;strokeColor=none;fillColor=none;fontSize=16;" parent="1" vertex="1">
          <mxGeometry x="180" y="910" width="340" height="30" as="geometry" />
        </mxCell>
        <mxCell id="JzgTgVcZ3ApAsJcOfGLZ-82" value="providers" style="shape=table;startSize=30;container=1;collapsible=1;childLayout=tableLayout;fixedRows=1;rowLines=0;fontStyle=1;align=center;resizeLast=1;html=1;" parent="1" vertex="1">
          <mxGeometry x="-550" y="585" width="180" height="150" as="geometry" />
        </mxCell>
        <mxCell id="JzgTgVcZ3ApAsJcOfGLZ-83" value="" style="shape=tableRow;horizontal=0;startSize=0;swimlaneHead=0;swimlaneBody=0;fillColor=none;collapsible=0;dropTarget=0;points=[[0,0.5],[1,0.5]];portConstraint=eastwest;top=0;left=0;right=0;bottom=1;" parent="JzgTgVcZ3ApAsJcOfGLZ-82" vertex="1">
          <mxGeometry y="30" width="180" height="30" as="geometry" />
        </mxCell>
        <mxCell id="JzgTgVcZ3ApAsJcOfGLZ-84" value="PK" style="shape=partialRectangle;connectable=0;fillColor=none;top=0;left=0;bottom=0;right=0;fontStyle=1;overflow=hidden;whiteSpace=wrap;html=1;" parent="JzgTgVcZ3ApAsJcOfGLZ-83" vertex="1">
          <mxGeometry width="30" height="30" as="geometry">
            <mxRectangle width="30" height="30" as="alternateBounds" />
          </mxGeometry>
        </mxCell>
        <mxCell id="JzgTgVcZ3ApAsJcOfGLZ-85" value="id" style="shape=partialRectangle;connectable=0;fillColor=none;top=0;left=0;bottom=0;right=0;align=left;spacingLeft=6;fontStyle=5;overflow=hidden;whiteSpace=wrap;html=1;" parent="JzgTgVcZ3ApAsJcOfGLZ-83" vertex="1">
          <mxGeometry x="30" width="150" height="30" as="geometry">
            <mxRectangle width="150" height="30" as="alternateBounds" />
          </mxGeometry>
        </mxCell>
        <mxCell id="JzgTgVcZ3ApAsJcOfGLZ-86" value="" style="shape=tableRow;horizontal=0;startSize=0;swimlaneHead=0;swimlaneBody=0;fillColor=none;collapsible=0;dropTarget=0;points=[[0,0.5],[1,0.5]];portConstraint=eastwest;top=0;left=0;right=0;bottom=0;" parent="JzgTgVcZ3ApAsJcOfGLZ-82" vertex="1">
          <mxGeometry y="60" width="180" height="30" as="geometry" />
        </mxCell>
        <mxCell id="JzgTgVcZ3ApAsJcOfGLZ-87" value="" style="shape=partialRectangle;connectable=0;fillColor=none;top=0;left=0;bottom=0;right=0;editable=1;overflow=hidden;whiteSpace=wrap;html=1;" parent="JzgTgVcZ3ApAsJcOfGLZ-86" vertex="1">
          <mxGeometry width="30" height="30" as="geometry">
            <mxRectangle width="30" height="30" as="alternateBounds" />
          </mxGeometry>
        </mxCell>
        <mxCell id="JzgTgVcZ3ApAsJcOfGLZ-88" value="name" style="shape=partialRectangle;connectable=0;fillColor=none;top=0;left=0;bottom=0;right=0;align=left;spacingLeft=6;overflow=hidden;whiteSpace=wrap;html=1;" parent="JzgTgVcZ3ApAsJcOfGLZ-86" vertex="1">
          <mxGeometry x="30" width="150" height="30" as="geometry">
            <mxRectangle width="150" height="30" as="alternateBounds" />
          </mxGeometry>
        </mxCell>
        <mxCell id="JzgTgVcZ3ApAsJcOfGLZ-89" value="" style="shape=tableRow;horizontal=0;startSize=0;swimlaneHead=0;swimlaneBody=0;fillColor=none;collapsible=0;dropTarget=0;points=[[0,0.5],[1,0.5]];portConstraint=eastwest;top=0;left=0;right=0;bottom=0;" parent="JzgTgVcZ3ApAsJcOfGLZ-82" vertex="1">
          <mxGeometry y="90" width="180" height="30" as="geometry" />
        </mxCell>
        <mxCell id="JzgTgVcZ3ApAsJcOfGLZ-90" value="" style="shape=partialRectangle;connectable=0;fillColor=none;top=0;left=0;bottom=0;right=0;editable=1;overflow=hidden;whiteSpace=wrap;html=1;" parent="JzgTgVcZ3ApAsJcOfGLZ-89" vertex="1">
          <mxGeometry width="30" height="30" as="geometry">
            <mxRectangle width="30" height="30" as="alternateBounds" />
          </mxGeometry>
        </mxCell>
        <mxCell id="JzgTgVcZ3ApAsJcOfGLZ-91" value="address" style="shape=partialRectangle;connectable=0;fillColor=none;top=0;left=0;bottom=0;right=0;align=left;spacingLeft=6;overflow=hidden;whiteSpace=wrap;html=1;" parent="JzgTgVcZ3ApAsJcOfGLZ-89" vertex="1">
          <mxGeometry x="30" width="150" height="30" as="geometry">
            <mxRectangle width="150" height="30" as="alternateBounds" />
          </mxGeometry>
        </mxCell>
        <mxCell id="JzgTgVcZ3ApAsJcOfGLZ-92" value="" style="shape=tableRow;horizontal=0;startSize=0;swimlaneHead=0;swimlaneBody=0;fillColor=none;collapsible=0;dropTarget=0;points=[[0,0.5],[1,0.5]];portConstraint=eastwest;top=0;left=0;right=0;bottom=0;" parent="JzgTgVcZ3ApAsJcOfGLZ-82" vertex="1">
          <mxGeometry y="120" width="180" height="30" as="geometry" />
        </mxCell>
        <mxCell id="JzgTgVcZ3ApAsJcOfGLZ-93" value="" style="shape=partialRectangle;connectable=0;fillColor=none;top=0;left=0;bottom=0;right=0;editable=1;overflow=hidden;whiteSpace=wrap;html=1;" parent="JzgTgVcZ3ApAsJcOfGLZ-92" vertex="1">
          <mxGeometry width="30" height="30" as="geometry">
            <mxRectangle width="30" height="30" as="alternateBounds" />
          </mxGeometry>
        </mxCell>
        <mxCell id="JzgTgVcZ3ApAsJcOfGLZ-94" value="phone" style="shape=partialRectangle;connectable=0;fillColor=none;top=0;left=0;bottom=0;right=0;align=left;spacingLeft=6;overflow=hidden;whiteSpace=wrap;html=1;" parent="JzgTgVcZ3ApAsJcOfGLZ-92" vertex="1">
          <mxGeometry x="30" width="150" height="30" as="geometry">
            <mxRectangle width="150" height="30" as="alternateBounds" />
          </mxGeometry>
        </mxCell>
        <mxCell id="JzgTgVcZ3ApAsJcOfGLZ-95" value="id_providers" style="shape=partialRectangle;connectable=0;fillColor=none;top=0;left=0;bottom=0;right=0;align=left;spacingLeft=6;overflow=hidden;whiteSpace=wrap;html=1;" parent="1" vertex="1">
          <mxGeometry x="-200" y="665" width="150" height="30" as="geometry">
            <mxRectangle width="150" height="30" as="alternateBounds" />
          </mxGeometry>
        </mxCell>
        <mxCell id="JzgTgVcZ3ApAsJcOfGLZ-100" value="" style="edgeStyle=entityRelationEdgeStyle;fontSize=12;html=1;endArrow=ERmany;rounded=0;startSize=8;endSize=8;exitX=1;exitY=0.5;exitDx=0;exitDy=0;entryX=0;entryY=0.75;entryDx=0;entryDy=0;" parent="1" source="JzgTgVcZ3ApAsJcOfGLZ-29" target="JzgTgVcZ3ApAsJcOfGLZ-41" edge="1">
          <mxGeometry width="100" height="100" relative="1" as="geometry">
            <mxPoint x="-330" y="420" as="sourcePoint" />
            <mxPoint x="-250" y="440" as="targetPoint" />
          </mxGeometry>
        </mxCell>
        <mxCell id="JzgTgVcZ3ApAsJcOfGLZ-101" value="" style="edgeStyle=entityRelationEdgeStyle;fontSize=12;html=1;endArrow=ERmany;rounded=0;startSize=8;endSize=8;entryX=1;entryY=0.5;entryDx=0;entryDy=0;exitX=1;exitY=0.5;exitDx=0;exitDy=0;" parent="1" source="JzgTgVcZ3ApAsJcOfGLZ-29" target="JzgTgVcZ3ApAsJcOfGLZ-22" edge="1">
          <mxGeometry width="100" height="100" relative="1" as="geometry">
            <mxPoint x="-370" y="300" as="sourcePoint" />
            <mxPoint x="-330" y="490" as="targetPoint" />
          </mxGeometry>
        </mxCell>
        <mxCell id="JzgTgVcZ3ApAsJcOfGLZ-105" value="" style="edgeStyle=entityRelationEdgeStyle;fontSize=12;html=1;endArrow=ERmany;rounded=0;startSize=8;endSize=8;exitX=1;exitY=0.5;exitDx=0;exitDy=0;" parent="1" source="JzgTgVcZ3ApAsJcOfGLZ-16" edge="1">
          <mxGeometry width="100" height="100" relative="1" as="geometry">
            <mxPoint x="-110" y="590" as="sourcePoint" />
            <mxPoint x="-230" y="650" as="targetPoint" />
          </mxGeometry>
        </mxCell>
        <mxCell id="JzgTgVcZ3ApAsJcOfGLZ-108" value="" style="edgeStyle=entityRelationEdgeStyle;fontSize=12;html=1;endArrow=ERmany;rounded=0;startSize=8;endSize=8;exitX=1;exitY=0.5;exitDx=0;exitDy=0;" parent="1" source="JzgTgVcZ3ApAsJcOfGLZ-83" edge="1">
          <mxGeometry width="100" height="100" relative="1" as="geometry">
            <mxPoint x="-110" y="590" as="sourcePoint" />
            <mxPoint x="-230" y="680" as="targetPoint" />
          </mxGeometry>
        </mxCell>
        <mxCell id="JzgTgVcZ3ApAsJcOfGLZ-115" value="8" style="text;html=1;align=center;verticalAlign=middle;resizable=0;points=[];autosize=1;strokeColor=none;fillColor=none;fontSize=16;rotation=90;" parent="1" vertex="1">
          <mxGeometry x="-260" y="585" width="30" height="30" as="geometry" />
        </mxCell>
        <mxCell id="JzgTgVcZ3ApAsJcOfGLZ-116" value="8" style="text;html=1;align=center;verticalAlign=middle;resizable=0;points=[];autosize=1;strokeColor=none;fillColor=none;fontSize=16;rotation=90;" parent="1" vertex="1">
          <mxGeometry x="-260" y="620" width="30" height="30" as="geometry" />
        </mxCell>
        <mxCell id="JzgTgVcZ3ApAsJcOfGLZ-117" value="1" style="text;html=1;align=center;verticalAlign=middle;resizable=0;points=[];autosize=1;strokeColor=none;fillColor=none;fontSize=16;" parent="1" vertex="1">
          <mxGeometry x="-370" y="240" width="30" height="30" as="geometry" />
        </mxCell>
        <mxCell id="JzgTgVcZ3ApAsJcOfGLZ-118" value="1" style="text;html=1;align=center;verticalAlign=middle;resizable=0;points=[];autosize=1;strokeColor=none;fillColor=none;fontSize=16;" parent="1" vertex="1">
          <mxGeometry x="-370" y="420" width="30" height="30" as="geometry" />
        </mxCell>
        <mxCell id="JzgTgVcZ3ApAsJcOfGLZ-119" value="password" style="shape=partialRectangle;connectable=0;fillColor=none;top=0;left=0;bottom=0;right=0;align=left;spacingLeft=6;overflow=hidden;whiteSpace=wrap;html=1;" parent="1" vertex="1">
          <mxGeometry x="-200" y="280" width="150" height="30" as="geometry">
            <mxRectangle width="150" height="30" as="alternateBounds" />
          </mxGeometry>
        </mxCell>
        <mxCell id="JzgTgVcZ3ApAsJcOfGLZ-121" value="8" style="text;html=1;align=center;verticalAlign=middle;resizable=0;points=[];autosize=1;strokeColor=none;fillColor=none;fontSize=16;rotation=90;" parent="1" vertex="1">
          <mxGeometry x="25" y="500" width="30" height="30" as="geometry" />
        </mxCell>
        <mxCell id="JzgTgVcZ3ApAsJcOfGLZ-122" value="8" style="text;html=1;align=center;verticalAlign=middle;resizable=0;points=[];autosize=1;strokeColor=none;fillColor=none;fontSize=16;rotation=90;" parent="1" vertex="1">
          <mxGeometry x="-370" y="480" width="30" height="30" as="geometry" />
        </mxCell>
        <mxCell id="JzgTgVcZ3ApAsJcOfGLZ-123" value="8" style="text;html=1;align=center;verticalAlign=middle;resizable=0;points=[];autosize=1;strokeColor=none;fillColor=none;fontSize=16;rotation=90;" parent="1" vertex="1">
          <mxGeometry x="-260" y="650" width="30" height="30" as="geometry" />
        </mxCell>
        <mxCell id="JzgTgVcZ3ApAsJcOfGLZ-124" value="1" style="text;html=1;align=center;verticalAlign=middle;resizable=0;points=[];autosize=1;strokeColor=none;fillColor=none;fontSize=16;" parent="1" vertex="1">
          <mxGeometry x="-50" y="410" width="30" height="30" as="geometry" />
        </mxCell>
        <mxCell id="JzgTgVcZ3ApAsJcOfGLZ-125" value="1" style="text;html=1;align=center;verticalAlign=middle;resizable=0;points=[];autosize=1;strokeColor=none;fillColor=none;fontSize=16;" parent="1" vertex="1">
          <mxGeometry x="-370" y="600" width="30" height="30" as="geometry" />
        </mxCell>
        <mxCell id="JzgTgVcZ3ApAsJcOfGLZ-126" value="" style="edgeStyle=entityRelationEdgeStyle;fontSize=12;html=1;endArrow=ERmany;rounded=0;startSize=8;endSize=8;exitX=1;exitY=0.5;exitDx=0;exitDy=0;entryX=0;entryY=0.5;entryDx=0;entryDy=0;" parent="1" source="JzgTgVcZ3ApAsJcOfGLZ-3" target="JzgTgVcZ3ApAsJcOfGLZ-59" edge="1">
          <mxGeometry width="100" height="100" relative="1" as="geometry">
            <mxPoint x="-130" y="550" as="sourcePoint" />
            <mxPoint x="-30" y="450" as="targetPoint" />
          </mxGeometry>
        </mxCell>
        <mxCell id="JzgTgVcZ3ApAsJcOfGLZ-127" value="" style="edgeStyle=entityRelationEdgeStyle;fontSize=12;html=1;endArrow=ERmany;rounded=0;startSize=8;endSize=8;exitX=1;exitY=0.5;exitDx=0;exitDy=0;entryX=0;entryY=0.5;entryDx=0;entryDy=0;" parent="1" source="JzgTgVcZ3ApAsJcOfGLZ-42" target="JzgTgVcZ3ApAsJcOfGLZ-62" edge="1">
          <mxGeometry width="100" height="100" relative="1" as="geometry">
            <mxPoint x="-40" y="155" as="sourcePoint" />
            <mxPoint x="65" y="385" as="targetPoint" />
          </mxGeometry>
        </mxCell>
        <mxCell id="JzgTgVcZ3ApAsJcOfGLZ-128" value="8" style="text;html=1;align=center;verticalAlign=middle;resizable=0;points=[];autosize=1;strokeColor=none;fillColor=none;fontSize=16;rotation=90;" parent="1" vertex="1">
          <mxGeometry x="25" y="530" width="30" height="30" as="geometry" />
        </mxCell>
        <mxCell id="JzgTgVcZ3ApAsJcOfGLZ-129" value="1" style="text;html=1;align=center;verticalAlign=middle;resizable=0;points=[];autosize=1;strokeColor=none;fillColor=none;fontSize=16;" parent="1" vertex="1">
          <mxGeometry x="-50" y="120" width="30" height="30" as="geometry" />
        </mxCell>
        <mxCell id="JzgTgVcZ3ApAsJcOfGLZ-130" value="&lt;br&gt;&lt;span style=&quot;color: rgb(0, 0, 0); font-family: Helvetica; font-size: 12px; font-style: normal; font-variant-ligatures: normal; font-variant-caps: normal; font-weight: 700; letter-spacing: normal; orphans: 2; text-align: center; text-indent: 0px; text-transform: none; widows: 2; word-spacing: 0px; -webkit-text-stroke-width: 0px; background-color: rgb(251, 251, 251); text-decoration-thickness: initial; text-decoration-style: initial; text-decoration-color: initial; float: none; display: inline !important;&quot;&gt;categories&lt;br&gt;&lt;br&gt;&lt;/span&gt;" style="rounded=0;whiteSpace=wrap;html=1;" parent="1" vertex="1">
          <mxGeometry x="-413.5" y="980" width="120" height="60" as="geometry" />
        </mxCell>
        <mxCell id="JzgTgVcZ3ApAsJcOfGLZ-131" value="&lt;span style=&quot;color: rgb(0, 0, 0); font-family: Helvetica; font-size: 12px; font-style: normal; font-variant-ligatures: normal; font-variant-caps: normal; font-weight: 700; letter-spacing: normal; orphans: 2; text-align: center; text-indent: 0px; text-transform: none; widows: 2; word-spacing: 0px; -webkit-text-stroke-width: 0px; background-color: rgb(251, 251, 251); text-decoration-thickness: initial; text-decoration-style: initial; text-decoration-color: initial; float: none; display: inline !important;&quot;&gt;subcategories&lt;br&gt;&lt;/span&gt;" style="rounded=0;whiteSpace=wrap;html=1;" parent="1" vertex="1">
          <mxGeometry x="-65" y="980" width="120" height="60" as="geometry" />
        </mxCell>
        <mxCell id="JzgTgVcZ3ApAsJcOfGLZ-132" value="clients" style="rounded=0;whiteSpace=wrap;html=1;" parent="1" vertex="1">
          <mxGeometry x="-450" y="1300" width="120" height="60" as="geometry" />
        </mxCell>
        <mxCell id="JzgTgVcZ3ApAsJcOfGLZ-133" value="providers" style="rounded=0;whiteSpace=wrap;html=1;" parent="1" vertex="1">
          <mxGeometry x="70" y="1150" width="120" height="60" as="geometry" />
        </mxCell>
        <mxCell id="JzgTgVcZ3ApAsJcOfGLZ-134" value="orders" style="rounded=0;whiteSpace=wrap;html=1;" parent="1" vertex="1">
          <mxGeometry x="-200" y="1370" width="120" height="60" as="geometry" />
        </mxCell>
        <mxCell id="JzgTgVcZ3ApAsJcOfGLZ-135" value="products" style="rounded=0;whiteSpace=wrap;html=1;" parent="1" vertex="1">
          <mxGeometry x="-250" y="1150" width="120" height="60" as="geometry" />
        </mxCell>
        <mxCell id="JzgTgVcZ3ApAsJcOfGLZ-137" value="включает" style="rhombus;whiteSpace=wrap;html=1;" parent="1" vertex="1">
          <mxGeometry x="-220" y="980" width="80" height="60" as="geometry" />
        </mxCell>
        <mxCell id="JzgTgVcZ3ApAsJcOfGLZ-138" value="имеют" style="rhombus;whiteSpace=wrap;html=1;" parent="1" vertex="1">
          <mxGeometry x="-70" y="1150" width="80" height="60" as="geometry" />
        </mxCell>
        <mxCell id="JzgTgVcZ3ApAsJcOfGLZ-139" value="делает" style="rhombus;whiteSpace=wrap;html=1;" parent="1" vertex="1">
          <mxGeometry x="-500" y="1220" width="80" height="60" as="geometry" />
        </mxCell>
        <mxCell id="JzgTgVcZ3ApAsJcOfGLZ-140" value="содержится" style="rhombus;whiteSpace=wrap;html=1;" parent="1" vertex="1">
          <mxGeometry x="-393.5" y="1150" width="80" height="60" as="geometry" />
        </mxCell>
        <mxCell id="JzgTgVcZ3ApAsJcOfGLZ-142" value="включает" style="rhombus;whiteSpace=wrap;html=1;" parent="1" vertex="1">
          <mxGeometry x="-330" y="1070" width="80" height="60" as="geometry" />
        </mxCell>
        <mxCell id="JzgTgVcZ3ApAsJcOfGLZ-143" value="включает" style="rhombus;whiteSpace=wrap;html=1;" parent="1" vertex="1">
          <mxGeometry x="-130" y="1070" width="80" height="60" as="geometry" />
        </mxCell>
        <mxCell id="JzgTgVcZ3ApAsJcOfGLZ-150" value="" style="endArrow=none;html=1;rounded=0;fontSize=12;startSize=8;endSize=8;entryX=0;entryY=0.5;entryDx=0;entryDy=0;exitX=1;exitY=0.5;exitDx=0;exitDy=0;" parent="1" source="JzgTgVcZ3ApAsJcOfGLZ-130" target="JzgTgVcZ3ApAsJcOfGLZ-137" edge="1">
          <mxGeometry width="50" height="50" relative="1" as="geometry">
            <mxPoint x="-470" y="1130" as="sourcePoint" />
            <mxPoint x="-420" y="1080" as="targetPoint" />
          </mxGeometry>
        </mxCell>
        <mxCell id="JzgTgVcZ3ApAsJcOfGLZ-151" value="" style="endArrow=none;html=1;rounded=0;fontSize=12;startSize=8;endSize=8;exitX=1;exitY=0.5;exitDx=0;exitDy=0;entryX=0;entryY=0.5;entryDx=0;entryDy=0;" parent="1" source="JzgTgVcZ3ApAsJcOfGLZ-137" target="JzgTgVcZ3ApAsJcOfGLZ-131" edge="1">
          <mxGeometry width="50" height="50" relative="1" as="geometry">
            <mxPoint x="-130" y="1009.55" as="sourcePoint" />
            <mxPoint x="-70" y="1010" as="targetPoint" />
            <Array as="points">
              <mxPoint x="-80" y="1010" />
            </Array>
          </mxGeometry>
        </mxCell>
        <mxCell id="JzgTgVcZ3ApAsJcOfGLZ-152" value="" style="endArrow=none;html=1;rounded=0;fontSize=12;startSize=8;endSize=8;entryX=0;entryY=0.5;entryDx=0;entryDy=0;" parent="1" target="JzgTgVcZ3ApAsJcOfGLZ-138" edge="1">
          <mxGeometry width="50" height="50" relative="1" as="geometry">
            <mxPoint x="-130" y="1180" as="sourcePoint" />
            <mxPoint x="-57" y="1160" as="targetPoint" />
          </mxGeometry>
        </mxCell>
        <mxCell id="JzgTgVcZ3ApAsJcOfGLZ-153" value="" style="endArrow=none;html=1;rounded=0;fontSize=12;startSize=8;endSize=8;entryX=0;entryY=0.5;entryDx=0;entryDy=0;exitX=1;exitY=0.5;exitDx=0;exitDy=0;" parent="1" source="JzgTgVcZ3ApAsJcOfGLZ-138" target="JzgTgVcZ3ApAsJcOfGLZ-133" edge="1">
          <mxGeometry width="50" height="50" relative="1" as="geometry">
            <mxPoint x="-10" y="1169" as="sourcePoint" />
            <mxPoint x="63" y="1169" as="targetPoint" />
          </mxGeometry>
        </mxCell>
        <mxCell id="JzgTgVcZ3ApAsJcOfGLZ-154" value="" style="endArrow=none;html=1;rounded=0;fontSize=12;startSize=8;endSize=8;entryX=0.5;entryY=1;entryDx=0;entryDy=0;exitX=0.289;exitY=0.225;exitDx=0;exitDy=0;exitPerimeter=0;" parent="1" source="JzgTgVcZ3ApAsJcOfGLZ-142" target="JzgTgVcZ3ApAsJcOfGLZ-130" edge="1">
          <mxGeometry width="50" height="50" relative="1" as="geometry">
            <mxPoint x="-310" y="1080" as="sourcePoint" />
            <mxPoint x="-370" y="1080" as="targetPoint" />
          </mxGeometry>
        </mxCell>
        <mxCell id="JzgTgVcZ3ApAsJcOfGLZ-155" value="" style="endArrow=none;html=1;rounded=0;fontSize=12;startSize=8;endSize=8;entryX=1;entryY=1;entryDx=0;entryDy=0;exitX=0.138;exitY=-0.018;exitDx=0;exitDy=0;exitPerimeter=0;" parent="1" source="JzgTgVcZ3ApAsJcOfGLZ-135" target="JzgTgVcZ3ApAsJcOfGLZ-142" edge="1">
          <mxGeometry width="50" height="50" relative="1" as="geometry">
            <mxPoint x="-150" y="1150" as="sourcePoint" />
            <mxPoint x="-100" y="1100" as="targetPoint" />
          </mxGeometry>
        </mxCell>
        <mxCell id="JzgTgVcZ3ApAsJcOfGLZ-157" value="" style="endArrow=none;html=1;rounded=0;fontSize=12;startSize=8;endSize=8;entryX=0.35;entryY=0.997;entryDx=0;entryDy=0;entryPerimeter=0;exitX=1;exitY=0;exitDx=0;exitDy=0;" parent="1" source="JzgTgVcZ3ApAsJcOfGLZ-143" target="JzgTgVcZ3ApAsJcOfGLZ-131" edge="1">
          <mxGeometry width="50" height="50" relative="1" as="geometry">
            <mxPoint x="-60" y="1090" as="sourcePoint" />
            <mxPoint x="-20" y="1040" as="targetPoint" />
          </mxGeometry>
        </mxCell>
        <mxCell id="JzgTgVcZ3ApAsJcOfGLZ-158" value="" style="endArrow=none;html=1;rounded=0;fontSize=12;startSize=8;endSize=8;entryX=0;entryY=1;entryDx=0;entryDy=0;exitX=0.83;exitY=-0.02;exitDx=0;exitDy=0;exitPerimeter=0;" parent="1" source="JzgTgVcZ3ApAsJcOfGLZ-135" target="JzgTgVcZ3ApAsJcOfGLZ-143" edge="1">
          <mxGeometry width="50" height="50" relative="1" as="geometry">
            <mxPoint x="-190" y="1090" as="sourcePoint" />
            <mxPoint x="-140" y="1040" as="targetPoint" />
          </mxGeometry>
        </mxCell>
        <mxCell id="JzgTgVcZ3ApAsJcOfGLZ-163" value="1" style="text;html=1;align=center;verticalAlign=middle;resizable=0;points=[];autosize=1;strokeColor=none;fillColor=none;fontSize=16;" parent="1" vertex="1">
          <mxGeometry x="-290" y="981" width="30" height="30" as="geometry" />
        </mxCell>
        <mxCell id="JzgTgVcZ3ApAsJcOfGLZ-164" value="М" style="text;html=1;align=center;verticalAlign=middle;resizable=0;points=[];autosize=1;strokeColor=none;fillColor=none;fontSize=16;" parent="1" vertex="1">
          <mxGeometry x="-105" y="981" width="40" height="30" as="geometry" />
        </mxCell>
        <mxCell id="JzgTgVcZ3ApAsJcOfGLZ-166" value="М" style="text;html=1;align=center;verticalAlign=middle;resizable=0;points=[];autosize=1;strokeColor=none;fillColor=none;fontSize=16;" parent="1" vertex="1">
          <mxGeometry x="-135" y="1150" width="40" height="30" as="geometry" />
        </mxCell>
        <mxCell id="JzgTgVcZ3ApAsJcOfGLZ-167" value="М" style="text;html=1;align=center;verticalAlign=middle;resizable=0;points=[];autosize=1;strokeColor=none;fillColor=none;fontSize=16;" parent="1" vertex="1">
          <mxGeometry x="-180" y="1120" width="40" height="30" as="geometry" />
        </mxCell>
        <mxCell id="JzgTgVcZ3ApAsJcOfGLZ-168" value="М" style="text;html=1;align=center;verticalAlign=middle;resizable=0;points=[];autosize=1;strokeColor=none;fillColor=none;fontSize=16;" parent="1" vertex="1">
          <mxGeometry x="-250" y="1120" width="40" height="30" as="geometry" />
        </mxCell>
        <mxCell id="JzgTgVcZ3ApAsJcOfGLZ-170" value="1" style="text;html=1;align=center;verticalAlign=middle;resizable=0;points=[];autosize=1;strokeColor=none;fillColor=none;fontSize=16;" parent="1" vertex="1">
          <mxGeometry x="-335" y="1040" width="30" height="30" as="geometry" />
        </mxCell>
        <mxCell id="JzgTgVcZ3ApAsJcOfGLZ-172" value="1" style="text;html=1;align=center;verticalAlign=middle;resizable=0;points=[];autosize=1;strokeColor=none;fillColor=none;fontSize=16;" parent="1" vertex="1">
          <mxGeometry x="-80" y="1040" width="30" height="30" as="geometry" />
        </mxCell>
        <mxCell id="JzgTgVcZ3ApAsJcOfGLZ-174" value="1" style="text;html=1;align=center;verticalAlign=middle;resizable=0;points=[];autosize=1;strokeColor=none;fillColor=none;fontSize=16;" parent="1" vertex="1">
          <mxGeometry x="40" y="1150" width="30" height="30" as="geometry" />
        </mxCell>
        <mxCell id="JzgTgVcZ3ApAsJcOfGLZ-177" value="&lt;br&gt;&lt;span style=&quot;color: rgb(0, 0, 0); font-family: Helvetica; font-size: 12px; font-style: normal; font-variant-ligatures: normal; font-variant-caps: normal; font-weight: 700; letter-spacing: normal; orphans: 2; text-align: center; text-indent: 0px; text-transform: none; widows: 2; word-spacing: 0px; -webkit-text-stroke-width: 0px; background-color: rgb(251, 251, 251); text-decoration-thickness: initial; text-decoration-style: initial; text-decoration-color: initial; float: none; display: inline !important;&quot;&gt;categories&lt;br&gt;&lt;br&gt;&lt;/span&gt;" style="rounded=0;whiteSpace=wrap;html=1;" parent="1" vertex="1">
          <mxGeometry x="-520" y="1520" width="120" height="60" as="geometry" />
        </mxCell>
        <mxCell id="JzgTgVcZ3ApAsJcOfGLZ-178" value="clients" style="rounded=0;whiteSpace=wrap;html=1;" parent="1" vertex="1">
          <mxGeometry x="-330" y="1724" width="120" height="60" as="geometry" />
        </mxCell>
        <mxCell id="JzgTgVcZ3ApAsJcOfGLZ-179" value="orders" style="rounded=0;whiteSpace=wrap;html=1;" parent="1" vertex="1">
          <mxGeometry x="-125" y="1724" width="120" height="60" as="geometry" />
        </mxCell>
        <mxCell id="JzgTgVcZ3ApAsJcOfGLZ-180" value="products" style="rounded=0;whiteSpace=wrap;html=1;" parent="1" vertex="1">
          <mxGeometry x="-330" y="1620" width="120" height="60" as="geometry" />
        </mxCell>
        <mxCell id="JzgTgVcZ3ApAsJcOfGLZ-181" value="providers" style="rounded=0;whiteSpace=wrap;html=1;" parent="1" vertex="1">
          <mxGeometry x="-520" y="1724" width="120" height="60" as="geometry" />
        </mxCell>
        <mxCell id="JzgTgVcZ3ApAsJcOfGLZ-182" value="&lt;span style=&quot;color: rgb(0, 0, 0); font-family: Helvetica; font-size: 12px; font-style: normal; font-variant-ligatures: normal; font-variant-caps: normal; font-weight: 700; letter-spacing: normal; orphans: 2; text-align: center; text-indent: 0px; text-transform: none; widows: 2; word-spacing: 0px; -webkit-text-stroke-width: 0px; background-color: rgb(251, 251, 251); text-decoration-thickness: initial; text-decoration-style: initial; text-decoration-color: initial; float: none; display: inline !important;&quot;&gt;subcategories&lt;br&gt;&lt;/span&gt;" style="rounded=0;whiteSpace=wrap;html=1;" parent="1" vertex="1">
          <mxGeometry x="-550" y="1620" width="120" height="60" as="geometry" />
        </mxCell>
        <mxCell id="944TAtu63KpLs8zd-8m2-1" value="status" style="shape=partialRectangle;connectable=0;fillColor=none;top=0;left=0;bottom=0;right=0;align=left;spacingLeft=6;overflow=hidden;whiteSpace=wrap;html=1;" parent="1" vertex="1">
          <mxGeometry x="85" y="660" width="150" height="30" as="geometry">
            <mxRectangle width="150" height="30" as="alternateBounds" />
          </mxGeometry>
        </mxCell>
        <mxCell id="944TAtu63KpLs8zd-8m2-7" value="1" style="text;html=1;align=center;verticalAlign=middle;resizable=0;points=[];autosize=1;strokeColor=none;fillColor=none;fontSize=16;" parent="1" vertex="1">
          <mxGeometry x="-125" y="1180" width="30" height="30" as="geometry" />
        </mxCell>
        <mxCell id="944TAtu63KpLs8zd-8m2-8" value="1" style="text;html=1;align=center;verticalAlign=middle;resizable=0;points=[];autosize=1;strokeColor=none;fillColor=none;fontSize=16;" parent="1" vertex="1">
          <mxGeometry x="40" y="1180" width="30" height="30" as="geometry" />
        </mxCell>
        <mxCell id="944TAtu63KpLs8zd-8m2-9" value="1" style="text;html=1;align=center;verticalAlign=middle;resizable=0;points=[];autosize=1;strokeColor=none;fillColor=none;fontSize=16;" parent="1" vertex="1">
          <mxGeometry x="-375" y="1040" width="30" height="30" as="geometry" />
        </mxCell>
        <mxCell id="944TAtu63KpLs8zd-8m2-10" value="1" style="text;html=1;align=center;verticalAlign=middle;resizable=0;points=[];autosize=1;strokeColor=none;fillColor=none;fontSize=16;" parent="1" vertex="1">
          <mxGeometry x="-285" y="1120" width="30" height="30" as="geometry" />
        </mxCell>
        <mxCell id="944TAtu63KpLs8zd-8m2-11" value="1" style="text;html=1;align=center;verticalAlign=middle;resizable=0;points=[];autosize=1;strokeColor=none;fillColor=none;fontSize=16;" parent="1" vertex="1">
          <mxGeometry x="-293.5" y="1010" width="30" height="30" as="geometry" />
        </mxCell>
        <mxCell id="944TAtu63KpLs8zd-8m2-12" value="1" style="text;html=1;align=center;verticalAlign=middle;resizable=0;points=[];autosize=1;strokeColor=none;fillColor=none;fontSize=16;" parent="1" vertex="1">
          <mxGeometry x="-95" y="1010" width="30" height="30" as="geometry" />
        </mxCell>
        <mxCell id="944TAtu63KpLs8zd-8m2-14" value="" style="edgeStyle=entityRelationEdgeStyle;fontSize=12;html=1;endArrow=ERmany;rounded=0;exitX=0.5;exitY=1;exitDx=0;exitDy=0;" parent="1" source="JzgTgVcZ3ApAsJcOfGLZ-177" edge="1">
          <mxGeometry width="100" height="100" relative="1" as="geometry">
            <mxPoint x="-600" y="1540" as="sourcePoint" />
            <mxPoint x="-550" y="1640" as="targetPoint" />
            <Array as="points">
              <mxPoint x="-570" y="1530" />
              <mxPoint x="-440" y="1590" />
              <mxPoint x="-570" y="1630" />
              <mxPoint x="-460" y="1600" />
              <mxPoint x="-430" y="1600" />
              <mxPoint x="-450" y="1610" />
              <mxPoint x="-440" y="1610" />
              <mxPoint x="-440" y="1610" />
            </Array>
          </mxGeometry>
        </mxCell>
        <mxCell id="944TAtu63KpLs8zd-8m2-16" value="" style="edgeStyle=entityRelationEdgeStyle;fontSize=12;html=1;endArrow=ERmany;rounded=0;exitX=1;exitY=0.5;exitDx=0;exitDy=0;entryX=0;entryY=0.25;entryDx=0;entryDy=0;" parent="1" target="JzgTgVcZ3ApAsJcOfGLZ-180" edge="1">
          <mxGeometry width="100" height="100" relative="1" as="geometry">
            <mxPoint x="-398" y="1550" as="sourcePoint" />
            <mxPoint x="-270" y="1580" as="targetPoint" />
          </mxGeometry>
        </mxCell>
        <mxCell id="944TAtu63KpLs8zd-8m2-17" value="" style="edgeStyle=entityRelationEdgeStyle;fontSize=12;html=1;endArrow=ERmany;rounded=0;exitX=1;exitY=0.75;exitDx=0;exitDy=0;entryX=0;entryY=0.5;entryDx=0;entryDy=0;" parent="1" source="JzgTgVcZ3ApAsJcOfGLZ-182" target="JzgTgVcZ3ApAsJcOfGLZ-180" edge="1">
          <mxGeometry width="100" height="100" relative="1" as="geometry">
            <mxPoint x="-390" y="1740" as="sourcePoint" />
            <mxPoint x="-290" y="1640" as="targetPoint" />
          </mxGeometry>
        </mxCell>
        <mxCell id="944TAtu63KpLs8zd-8m2-18" value="" style="edgeStyle=entityRelationEdgeStyle;fontSize=12;html=1;endArrow=ERmany;rounded=0;exitX=1;exitY=0.5;exitDx=0;exitDy=0;entryX=0;entryY=0.75;entryDx=0;entryDy=0;" parent="1" source="JzgTgVcZ3ApAsJcOfGLZ-181" target="JzgTgVcZ3ApAsJcOfGLZ-180" edge="1">
          <mxGeometry width="100" height="100" relative="1" as="geometry">
            <mxPoint x="-390" y="1790" as="sourcePoint" />
            <mxPoint x="-290" y="1690" as="targetPoint" />
          </mxGeometry>
        </mxCell>
        <mxCell id="944TAtu63KpLs8zd-8m2-19" value="" style="edgeStyle=entityRelationEdgeStyle;fontSize=12;html=1;endArrow=ERmany;rounded=0;exitX=1;exitY=0.5;exitDx=0;exitDy=0;" parent="1" source="JzgTgVcZ3ApAsJcOfGLZ-178" target="JzgTgVcZ3ApAsJcOfGLZ-179" edge="1">
          <mxGeometry width="100" height="100" relative="1" as="geometry">
            <mxPoint x="-390" y="1790" as="sourcePoint" />
            <mxPoint x="-290" y="1690" as="targetPoint" />
          </mxGeometry>
        </mxCell>
        <mxCell id="944TAtu63KpLs8zd-8m2-20" value="" style="edgeStyle=entityRelationEdgeStyle;fontSize=12;html=1;endArrow=ERmany;rounded=0;exitX=1;exitY=0.5;exitDx=0;exitDy=0;entryX=0;entryY=0.25;entryDx=0;entryDy=0;" parent="1" source="JzgTgVcZ3ApAsJcOfGLZ-180" target="JzgTgVcZ3ApAsJcOfGLZ-179" edge="1">
          <mxGeometry width="100" height="100" relative="1" as="geometry">
            <mxPoint x="-210" y="1790" as="sourcePoint" />
            <mxPoint x="-110" y="1690" as="targetPoint" />
          </mxGeometry>
        </mxCell>
        <mxCell id="QABl5Z-Ux-MSuVjXrbYE-1" value="reviews" style="rounded=0;whiteSpace=wrap;html=1;" vertex="1" parent="1">
          <mxGeometry x="-125" y="1620" width="120" height="60" as="geometry" />
        </mxCell>
        <mxCell id="QABl5Z-Ux-MSuVjXrbYE-2" value="" style="edgeStyle=entityRelationEdgeStyle;fontSize=12;html=1;endArrow=ERmany;rounded=0;exitX=1;exitY=0.25;exitDx=0;exitDy=0;entryX=0;entryY=0.25;entryDx=0;entryDy=0;" edge="1" parent="1" source="JzgTgVcZ3ApAsJcOfGLZ-180" target="QABl5Z-Ux-MSuVjXrbYE-1">
          <mxGeometry width="100" height="100" relative="1" as="geometry">
            <mxPoint x="-200" y="1660" as="sourcePoint" />
            <mxPoint x="-115" y="1749" as="targetPoint" />
          </mxGeometry>
        </mxCell>
        <mxCell id="QABl5Z-Ux-MSuVjXrbYE-3" value="" style="edgeStyle=entityRelationEdgeStyle;fontSize=12;html=1;endArrow=ERmany;rounded=0;exitX=1;exitY=0.25;exitDx=0;exitDy=0;entryX=0;entryY=0.75;entryDx=0;entryDy=0;" edge="1" parent="1" source="JzgTgVcZ3ApAsJcOfGLZ-178" target="QABl5Z-Ux-MSuVjXrbYE-1">
          <mxGeometry width="100" height="100" relative="1" as="geometry">
            <mxPoint x="-200" y="1764" as="sourcePoint" />
            <mxPoint x="-115" y="1764" as="targetPoint" />
          </mxGeometry>
        </mxCell>
        <mxCell id="QABl5Z-Ux-MSuVjXrbYE-4" value="reviews" style="rounded=0;whiteSpace=wrap;html=1;" vertex="1" parent="1">
          <mxGeometry x="-570" y="1135" width="120" height="60" as="geometry" />
        </mxCell>
        <mxCell id="QABl5Z-Ux-MSuVjXrbYE-5" value="содержится" style="rhombus;whiteSpace=wrap;html=1;" vertex="1" parent="1">
          <mxGeometry x="-220" y="1250" width="80" height="60" as="geometry" />
        </mxCell>
        <mxCell id="QABl5Z-Ux-MSuVjXrbYE-6" value="делает" style="rhombus;whiteSpace=wrap;html=1;" vertex="1" parent="1">
          <mxGeometry x="-335" y="1380" width="80" height="60" as="geometry" />
        </mxCell>
        <mxCell id="QABl5Z-Ux-MSuVjXrbYE-8" value="" style="endArrow=none;html=1;rounded=0;entryX=0.5;entryY=1;entryDx=0;entryDy=0;exitX=0.5;exitY=0;exitDx=0;exitDy=0;" edge="1" parent="1" source="QABl5Z-Ux-MSuVjXrbYE-5" target="JzgTgVcZ3ApAsJcOfGLZ-135">
          <mxGeometry width="50" height="50" relative="1" as="geometry">
            <mxPoint x="-260" y="1320" as="sourcePoint" />
            <mxPoint x="-210" y="1270" as="targetPoint" />
          </mxGeometry>
        </mxCell>
        <mxCell id="QABl5Z-Ux-MSuVjXrbYE-9" value="" style="endArrow=none;html=1;rounded=0;entryX=0.5;entryY=1;entryDx=0;entryDy=0;exitX=0.25;exitY=0;exitDx=0;exitDy=0;" edge="1" parent="1" source="JzgTgVcZ3ApAsJcOfGLZ-134" target="QABl5Z-Ux-MSuVjXrbYE-5">
          <mxGeometry width="50" height="50" relative="1" as="geometry">
            <mxPoint x="-150" y="1365" as="sourcePoint" />
            <mxPoint x="-160" y="1310" as="targetPoint" />
          </mxGeometry>
        </mxCell>
        <mxCell id="QABl5Z-Ux-MSuVjXrbYE-10" value="" style="endArrow=none;html=1;rounded=0;entryX=1;entryY=0.5;entryDx=0;entryDy=0;exitX=0;exitY=0.5;exitDx=0;exitDy=0;" edge="1" parent="1" source="JzgTgVcZ3ApAsJcOfGLZ-134" target="QABl5Z-Ux-MSuVjXrbYE-6">
          <mxGeometry width="50" height="50" relative="1" as="geometry">
            <mxPoint x="-160" y="1380" as="sourcePoint" />
            <mxPoint x="-170" y="1320" as="targetPoint" />
          </mxGeometry>
        </mxCell>
        <mxCell id="QABl5Z-Ux-MSuVjXrbYE-11" value="" style="endArrow=none;html=1;rounded=0;entryX=0.5;entryY=1;entryDx=0;entryDy=0;exitX=0;exitY=0;exitDx=0;exitDy=0;" edge="1" parent="1" source="QABl5Z-Ux-MSuVjXrbYE-6" target="JzgTgVcZ3ApAsJcOfGLZ-132">
          <mxGeometry width="50" height="50" relative="1" as="geometry">
            <mxPoint x="-190" y="1410" as="sourcePoint" />
            <mxPoint x="-240" y="1410" as="targetPoint" />
          </mxGeometry>
        </mxCell>
        <mxCell id="QABl5Z-Ux-MSuVjXrbYE-12" value="" style="endArrow=none;html=1;rounded=0;entryX=1;entryY=1;entryDx=0;entryDy=0;exitX=0.25;exitY=0;exitDx=0;exitDy=0;" edge="1" parent="1" source="JzgTgVcZ3ApAsJcOfGLZ-132" target="JzgTgVcZ3ApAsJcOfGLZ-139">
          <mxGeometry width="50" height="50" relative="1" as="geometry">
            <mxPoint x="-305" y="1405" as="sourcePoint" />
            <mxPoint x="-380" y="1370" as="targetPoint" />
          </mxGeometry>
        </mxCell>
        <mxCell id="QABl5Z-Ux-MSuVjXrbYE-13" value="" style="endArrow=none;html=1;rounded=0;entryX=0.5;entryY=1;entryDx=0;entryDy=0;exitX=0;exitY=0;exitDx=0;exitDy=0;" edge="1" parent="1" source="JzgTgVcZ3ApAsJcOfGLZ-139" target="QABl5Z-Ux-MSuVjXrbYE-4">
          <mxGeometry width="50" height="50" relative="1" as="geometry">
            <mxPoint x="-410" y="1310" as="sourcePoint" />
            <mxPoint x="-430" y="1275" as="targetPoint" />
          </mxGeometry>
        </mxCell>
        <mxCell id="QABl5Z-Ux-MSuVjXrbYE-14" value="" style="endArrow=none;html=1;rounded=0;entryX=1;entryY=0.5;entryDx=0;entryDy=0;exitX=0;exitY=0.5;exitDx=0;exitDy=0;" edge="1" parent="1" source="JzgTgVcZ3ApAsJcOfGLZ-135" target="JzgTgVcZ3ApAsJcOfGLZ-140">
          <mxGeometry width="50" height="50" relative="1" as="geometry">
            <mxPoint x="-170" y="1260" as="sourcePoint" />
            <mxPoint x="-180" y="1220" as="targetPoint" />
          </mxGeometry>
        </mxCell>
        <mxCell id="QABl5Z-Ux-MSuVjXrbYE-15" value="" style="endArrow=none;html=1;rounded=0;entryX=1;entryY=0.5;entryDx=0;entryDy=0;exitX=0;exitY=0.5;exitDx=0;exitDy=0;" edge="1" parent="1" source="JzgTgVcZ3ApAsJcOfGLZ-140" target="QABl5Z-Ux-MSuVjXrbYE-4">
          <mxGeometry width="50" height="50" relative="1" as="geometry">
            <mxPoint x="-240" y="1190" as="sourcePoint" />
            <mxPoint x="-303" y="1190" as="targetPoint" />
          </mxGeometry>
        </mxCell>
        <mxCell id="QABl5Z-Ux-MSuVjXrbYE-16" value="М" style="text;html=1;align=center;verticalAlign=middle;resizable=0;points=[];autosize=1;strokeColor=none;fillColor=none;fontSize=16;" vertex="1" parent="1">
          <mxGeometry x="-175" y="1340" width="40" height="30" as="geometry" />
        </mxCell>
        <mxCell id="QABl5Z-Ux-MSuVjXrbYE-17" value="М" style="text;html=1;align=center;verticalAlign=middle;resizable=0;points=[];autosize=1;strokeColor=none;fillColor=none;fontSize=16;" vertex="1" parent="1">
          <mxGeometry x="-453" y="1139" width="40" height="30" as="geometry" />
        </mxCell>
        <mxCell id="QABl5Z-Ux-MSuVjXrbYE-18" value="М" style="text;html=1;align=center;verticalAlign=middle;resizable=0;points=[];autosize=1;strokeColor=none;fillColor=none;fontSize=16;" vertex="1" parent="1">
          <mxGeometry x="-550" y="1190" width="40" height="30" as="geometry" />
        </mxCell>
        <mxCell id="QABl5Z-Ux-MSuVjXrbYE-19" value="М" style="text;html=1;align=center;verticalAlign=middle;resizable=0;points=[];autosize=1;strokeColor=none;fillColor=none;fontSize=16;" vertex="1" parent="1">
          <mxGeometry x="-240" y="1370" width="40" height="30" as="geometry" />
        </mxCell>
        <mxCell id="QABl5Z-Ux-MSuVjXrbYE-20" value="1" style="text;html=1;align=center;verticalAlign=middle;resizable=0;points=[];autosize=1;strokeColor=none;fillColor=none;fontSize=16;" vertex="1" parent="1">
          <mxGeometry x="-280" y="1150" width="30" height="30" as="geometry" />
        </mxCell>
        <mxCell id="QABl5Z-Ux-MSuVjXrbYE-21" value="1" style="text;html=1;align=center;verticalAlign=middle;resizable=0;points=[];autosize=1;strokeColor=none;fillColor=none;fontSize=16;" vertex="1" parent="1">
          <mxGeometry x="-428" y="1270" width="30" height="30" as="geometry" />
        </mxCell>
        <mxCell id="QABl5Z-Ux-MSuVjXrbYE-22" value="1" style="text;html=1;align=center;verticalAlign=middle;resizable=0;points=[];autosize=1;strokeColor=none;fillColor=none;fontSize=16;" vertex="1" parent="1">
          <mxGeometry x="-460" y="1270" width="30" height="30" as="geometry" />
        </mxCell>
        <mxCell id="QABl5Z-Ux-MSuVjXrbYE-23" value="1" style="text;html=1;align=center;verticalAlign=middle;resizable=0;points=[];autosize=1;strokeColor=none;fillColor=none;fontSize=16;" vertex="1" parent="1">
          <mxGeometry x="-500" y="1190" width="30" height="30" as="geometry" />
        </mxCell>
        <mxCell id="QABl5Z-Ux-MSuVjXrbYE-24" value="1" style="text;html=1;align=center;verticalAlign=middle;resizable=0;points=[];autosize=1;strokeColor=none;fillColor=none;fontSize=16;" vertex="1" parent="1">
          <mxGeometry x="-453" y="1165" width="30" height="30" as="geometry" />
        </mxCell>
        <mxCell id="QABl5Z-Ux-MSuVjXrbYE-25" value="1" style="text;html=1;align=center;verticalAlign=middle;resizable=0;points=[];autosize=1;strokeColor=none;fillColor=none;fontSize=16;" vertex="1" parent="1">
          <mxGeometry x="-285" y="1180" width="30" height="30" as="geometry" />
        </mxCell>
        <mxCell id="QABl5Z-Ux-MSuVjXrbYE-26" value="1" style="text;html=1;align=center;verticalAlign=middle;resizable=0;points=[];autosize=1;strokeColor=none;fillColor=none;fontSize=16;" vertex="1" parent="1">
          <mxGeometry x="-205" y="1340" width="30" height="30" as="geometry" />
        </mxCell>
        <mxCell id="QABl5Z-Ux-MSuVjXrbYE-27" value="1" style="text;html=1;align=center;verticalAlign=middle;resizable=0;points=[];autosize=1;strokeColor=none;fillColor=none;fontSize=16;" vertex="1" parent="1">
          <mxGeometry x="-175" y="1210" width="30" height="30" as="geometry" />
        </mxCell>
        <mxCell id="QABl5Z-Ux-MSuVjXrbYE-28" value="1" style="text;html=1;align=center;verticalAlign=middle;resizable=0;points=[];autosize=1;strokeColor=none;fillColor=none;fontSize=16;" vertex="1" parent="1">
          <mxGeometry x="-220" y="1210" width="30" height="30" as="geometry" />
        </mxCell>
        <mxCell id="QABl5Z-Ux-MSuVjXrbYE-29" value="1" style="text;html=1;align=center;verticalAlign=middle;resizable=0;points=[];autosize=1;strokeColor=none;fillColor=none;fontSize=16;" vertex="1" parent="1">
          <mxGeometry x="-350" y="1360" width="30" height="30" as="geometry" />
        </mxCell>
        <mxCell id="QABl5Z-Ux-MSuVjXrbYE-30" value="1" style="text;html=1;align=center;verticalAlign=middle;resizable=0;points=[];autosize=1;strokeColor=none;fillColor=none;fontSize=16;" vertex="1" parent="1">
          <mxGeometry x="-405" y="1360" width="30" height="30" as="geometry" />
        </mxCell>
        <mxCell id="QABl5Z-Ux-MSuVjXrbYE-31" value="1" style="text;html=1;align=center;verticalAlign=middle;resizable=0;points=[];autosize=1;strokeColor=none;fillColor=none;fontSize=16;" vertex="1" parent="1">
          <mxGeometry x="-230" y="1410" width="30" height="30" as="geometry" />
        </mxCell>
        <mxCell id="QABl5Z-Ux-MSuVjXrbYE-32" value="reviews" style="shape=table;startSize=30;container=1;collapsible=1;childLayout=tableLayout;fixedRows=1;rowLines=0;fontStyle=1;align=center;resizeLast=1;html=1;" vertex="1" parent="1">
          <mxGeometry x="70" y="115" width="180" height="250" as="geometry" />
        </mxCell>
        <mxCell id="QABl5Z-Ux-MSuVjXrbYE-33" value="" style="shape=tableRow;horizontal=0;startSize=0;swimlaneHead=0;swimlaneBody=0;fillColor=none;collapsible=0;dropTarget=0;points=[[0,0.5],[1,0.5]];portConstraint=eastwest;top=0;left=0;right=0;bottom=1;" vertex="1" parent="QABl5Z-Ux-MSuVjXrbYE-32">
          <mxGeometry y="30" width="180" height="30" as="geometry" />
        </mxCell>
        <mxCell id="QABl5Z-Ux-MSuVjXrbYE-34" value="PK" style="shape=partialRectangle;connectable=0;fillColor=none;top=0;left=0;bottom=0;right=0;fontStyle=1;overflow=hidden;whiteSpace=wrap;html=1;" vertex="1" parent="QABl5Z-Ux-MSuVjXrbYE-33">
          <mxGeometry width="30" height="30" as="geometry">
            <mxRectangle width="30" height="30" as="alternateBounds" />
          </mxGeometry>
        </mxCell>
        <mxCell id="QABl5Z-Ux-MSuVjXrbYE-35" value="id" style="shape=partialRectangle;connectable=0;fillColor=none;top=0;left=0;bottom=0;right=0;align=left;spacingLeft=6;fontStyle=5;overflow=hidden;whiteSpace=wrap;html=1;" vertex="1" parent="QABl5Z-Ux-MSuVjXrbYE-33">
          <mxGeometry x="30" width="150" height="30" as="geometry">
            <mxRectangle width="150" height="30" as="alternateBounds" />
          </mxGeometry>
        </mxCell>
        <mxCell id="QABl5Z-Ux-MSuVjXrbYE-36" value="" style="shape=tableRow;horizontal=0;startSize=0;swimlaneHead=0;swimlaneBody=0;fillColor=none;collapsible=0;dropTarget=0;points=[[0,0.5],[1,0.5]];portConstraint=eastwest;top=0;left=0;right=0;bottom=0;" vertex="1" parent="QABl5Z-Ux-MSuVjXrbYE-32">
          <mxGeometry y="60" width="180" height="30" as="geometry" />
        </mxCell>
        <mxCell id="QABl5Z-Ux-MSuVjXrbYE-37" value="" style="shape=partialRectangle;connectable=0;fillColor=none;top=0;left=0;bottom=0;right=0;editable=1;overflow=hidden;whiteSpace=wrap;html=1;" vertex="1" parent="QABl5Z-Ux-MSuVjXrbYE-36">
          <mxGeometry width="30" height="30" as="geometry">
            <mxRectangle width="30" height="30" as="alternateBounds" />
          </mxGeometry>
        </mxCell>
        <mxCell id="QABl5Z-Ux-MSuVjXrbYE-38" value="id_product" style="shape=partialRectangle;connectable=0;fillColor=none;top=0;left=0;bottom=0;right=0;align=left;spacingLeft=6;overflow=hidden;whiteSpace=wrap;html=1;" vertex="1" parent="QABl5Z-Ux-MSuVjXrbYE-36">
          <mxGeometry x="30" width="150" height="30" as="geometry">
            <mxRectangle width="150" height="30" as="alternateBounds" />
          </mxGeometry>
        </mxCell>
        <mxCell id="QABl5Z-Ux-MSuVjXrbYE-39" value="" style="shape=tableRow;horizontal=0;startSize=0;swimlaneHead=0;swimlaneBody=0;fillColor=none;collapsible=0;dropTarget=0;points=[[0,0.5],[1,0.5]];portConstraint=eastwest;top=0;left=0;right=0;bottom=0;" vertex="1" parent="QABl5Z-Ux-MSuVjXrbYE-32">
          <mxGeometry y="90" width="180" height="30" as="geometry" />
        </mxCell>
        <mxCell id="QABl5Z-Ux-MSuVjXrbYE-40" value="" style="shape=partialRectangle;connectable=0;fillColor=none;top=0;left=0;bottom=0;right=0;editable=1;overflow=hidden;whiteSpace=wrap;html=1;" vertex="1" parent="QABl5Z-Ux-MSuVjXrbYE-39">
          <mxGeometry width="30" height="30" as="geometry">
            <mxRectangle width="30" height="30" as="alternateBounds" />
          </mxGeometry>
        </mxCell>
        <mxCell id="QABl5Z-Ux-MSuVjXrbYE-41" value="id_client" style="shape=partialRectangle;connectable=0;fillColor=none;top=0;left=0;bottom=0;right=0;align=left;spacingLeft=6;overflow=hidden;whiteSpace=wrap;html=1;" vertex="1" parent="QABl5Z-Ux-MSuVjXrbYE-39">
          <mxGeometry x="30" width="150" height="30" as="geometry">
            <mxRectangle width="150" height="30" as="alternateBounds" />
          </mxGeometry>
        </mxCell>
        <mxCell id="QABl5Z-Ux-MSuVjXrbYE-42" value="" style="shape=tableRow;horizontal=0;startSize=0;swimlaneHead=0;swimlaneBody=0;fillColor=none;collapsible=0;dropTarget=0;points=[[0,0.5],[1,0.5]];portConstraint=eastwest;top=0;left=0;right=0;bottom=0;" vertex="1" parent="QABl5Z-Ux-MSuVjXrbYE-32">
          <mxGeometry y="120" width="180" height="30" as="geometry" />
        </mxCell>
        <mxCell id="QABl5Z-Ux-MSuVjXrbYE-43" value="" style="shape=partialRectangle;connectable=0;fillColor=none;top=0;left=0;bottom=0;right=0;editable=1;overflow=hidden;whiteSpace=wrap;html=1;" vertex="1" parent="QABl5Z-Ux-MSuVjXrbYE-42">
          <mxGeometry width="30" height="30" as="geometry">
            <mxRectangle width="30" height="30" as="alternateBounds" />
          </mxGeometry>
        </mxCell>
        <mxCell id="QABl5Z-Ux-MSuVjXrbYE-44" value="text" style="shape=partialRectangle;connectable=0;fillColor=none;top=0;left=0;bottom=0;right=0;align=left;spacingLeft=6;overflow=hidden;whiteSpace=wrap;html=1;" vertex="1" parent="QABl5Z-Ux-MSuVjXrbYE-42">
          <mxGeometry x="30" width="150" height="30" as="geometry">
            <mxRectangle width="150" height="30" as="alternateBounds" />
          </mxGeometry>
        </mxCell>
        <mxCell id="QABl5Z-Ux-MSuVjXrbYE-46" value="" style="endArrow=none;html=1;rounded=0;fontSize=12;startSize=8;endSize=8;entryX=0.165;entryY=0.985;entryDx=0;entryDy=0;entryPerimeter=0;" edge="1" parent="1">
          <mxGeometry width="50" height="50" relative="1" as="geometry">
            <mxPoint x="99.80000000000001" y="365" as="sourcePoint" />
            <mxPoint x="99.80000000000001" y="265" as="targetPoint" />
          </mxGeometry>
        </mxCell>
        <mxCell id="QABl5Z-Ux-MSuVjXrbYE-47" value="count_star" style="shape=partialRectangle;connectable=0;fillColor=none;top=0;left=0;bottom=0;right=0;align=left;spacingLeft=6;overflow=hidden;whiteSpace=wrap;html=1;" vertex="1" parent="1">
          <mxGeometry x="100" y="260" width="150" height="30" as="geometry">
            <mxRectangle width="150" height="30" as="alternateBounds" />
          </mxGeometry>
        </mxCell>
        <mxCell id="QABl5Z-Ux-MSuVjXrbYE-48" value="" style="edgeStyle=entityRelationEdgeStyle;fontSize=12;html=1;endArrow=ERmany;rounded=0;startSize=8;endSize=8;exitX=0.033;exitY=0.867;exitDx=0;exitDy=0;entryX=0;entryY=0.5;entryDx=0;entryDy=0;exitPerimeter=0;" edge="1" parent="1" source="JzgTgVcZ3ApAsJcOfGLZ-129" target="QABl5Z-Ux-MSuVjXrbYE-36">
          <mxGeometry width="100" height="100" relative="1" as="geometry">
            <mxPoint x="-40" y="155" as="sourcePoint" />
            <mxPoint x="65" y="535" as="targetPoint" />
          </mxGeometry>
        </mxCell>
        <mxCell id="QABl5Z-Ux-MSuVjXrbYE-50" value="8" style="text;html=1;align=center;verticalAlign=middle;resizable=0;points=[];autosize=1;strokeColor=none;fillColor=none;fontSize=16;rotation=90;" vertex="1" parent="1">
          <mxGeometry x="40" y="160" width="30" height="30" as="geometry" />
        </mxCell>
        <mxCell id="QABl5Z-Ux-MSuVjXrbYE-51" value="" style="edgeStyle=entityRelationEdgeStyle;fontSize=12;html=1;endArrow=ERmany;rounded=0;startSize=8;endSize=8;exitX=1;exitY=0.5;exitDx=0;exitDy=0;entryX=0;entryY=0.5;entryDx=0;entryDy=0;" edge="1" parent="1" source="JzgTgVcZ3ApAsJcOfGLZ-42" target="QABl5Z-Ux-MSuVjXrbYE-39">
          <mxGeometry width="100" height="100" relative="1" as="geometry">
            <mxPoint x="-40" y="450" as="sourcePoint" />
            <mxPoint x="65" y="565" as="targetPoint" />
          </mxGeometry>
        </mxCell>
        <mxCell id="QABl5Z-Ux-MSuVjXrbYE-52" value="8" style="text;html=1;align=center;verticalAlign=middle;resizable=0;points=[];autosize=1;strokeColor=none;fillColor=none;fontSize=16;rotation=90;" vertex="1" parent="1">
          <mxGeometry x="40" y="195" width="30" height="30" as="geometry" />
        </mxCell>
      </root>
    </mxGraphModel>
  </diagram>
</mxfile>
